<svg width="104" height="40" viewBox="0 0 104 40" fill="none" xmlns="http://www.w3.org/2000/svg">
<path d="M6.9707 22.9713V31.9999L29.485 18.9713L21.7136 14.5142L6.9707 22.9713Z" fill="url(#paint0_linear_125_531)"/>
<path d="M15.4278 29.0284L6.9707 34.1142L15.4278 38.9142V29.0284Z" fill="url(#paint1_linear_125_531)"/>
<path d="M6.9707 11.7714V20.8L19.9993 13.2571L33.0278 5.71425L25.3707 1.14282L6.9707 11.7714Z" fill="#171422"/>
<path d="M40 25.8546L42.3983 14.498H50.3867L49.9987 16.3496H44.391L43.7738 19.2593H48.729L48.3411 21.0933H43.3858L42.3806 25.8546H40Z" fill="#171422"/>
<path d="M52.3937 26.0309C51.6765 26.0309 51.0535 25.9016 50.5244 25.643C50.0072 25.3843 49.6368 24.967 49.4135 24.3909C49.2019 23.8031 49.196 23.0331 49.3958 22.0808C49.6074 21.0815 49.9601 20.2292 50.4539 19.5238C50.9477 18.8185 51.5414 18.2777 52.235 17.9015C52.9286 17.5135 53.6692 17.3195 54.4569 17.3195C54.9272 17.3195 55.3327 17.3724 55.6737 17.4782C56.0146 17.584 56.332 17.7721 56.6259 18.0425L56.7317 17.4959H59.1124L57.3489 25.8546H55.3034L55.321 25.0787C54.886 25.3961 54.4334 25.6371 53.9631 25.8017C53.5046 25.9545 52.9815 26.0309 52.3937 26.0309ZM53.4165 24.2851C54.1571 24.2851 54.839 24.0324 55.4621 23.5268L56.238 19.806C55.8735 19.3122 55.3621 19.0653 54.7038 19.0653C53.2107 19.0653 52.2467 20.0705 51.8117 22.0808C51.6236 22.939 51.653 23.521 51.8999 23.8266C52.1586 24.1323 52.6641 24.2851 53.4165 24.2851Z" fill="#171422"/>
<path d="M62.2658 26.0309C61.6427 26.0309 61.0608 25.9839 60.52 25.8899C59.9792 25.8076 59.5501 25.7018 59.2327 25.5724L59.6559 23.5974C60.0321 23.762 60.4671 23.8913 60.9608 23.9853C61.4664 24.0676 61.9366 24.1088 62.3716 24.1088C62.9594 24.1088 63.3826 24.0735 63.6413 24.003C63.8999 23.9324 64.0527 23.7737 64.0998 23.5268C64.1585 23.2447 64.0116 23.039 63.6589 22.9096C63.318 22.7803 62.8124 22.5981 62.1423 22.363C61.4252 22.1043 60.8962 21.7869 60.5552 21.4107C60.2261 21.0228 60.1379 20.4878 60.2907 19.806C60.4671 19.0066 60.8727 18.3952 61.5075 17.972C62.1423 17.537 63.1416 17.3195 64.5053 17.3195C65.0226 17.3195 65.5046 17.3607 65.9514 17.443C66.3981 17.5135 66.7684 17.6017 67.0623 17.7075L66.6391 19.6649C66.357 19.5121 66.016 19.4004 65.6163 19.3299C65.2284 19.2476 64.858 19.2064 64.5053 19.2064C63.9998 19.2064 63.5884 19.2417 63.2709 19.3122C62.9653 19.3828 62.7831 19.5356 62.7243 19.7707C62.6772 20.0294 62.8007 20.2116 63.0946 20.3174C63.3885 20.4232 63.8588 20.5819 64.5053 20.7935C65.4341 21.0992 66.0337 21.4577 66.3041 21.8692C66.5862 22.2807 66.6567 22.8215 66.5157 23.4916C66.3393 24.3263 65.9161 24.9611 65.246 25.3961C64.5876 25.8193 63.5942 26.0309 62.2658 26.0309Z" fill="#171422"/>
<path d="M70.6784 26.0309C69.7496 26.0309 69.0971 25.7782 68.7209 25.2726C68.3447 24.7671 68.2507 24.0794 68.4388 23.2094L69.2676 19.3299H68.0861L68.4741 17.4959H69.6556L70.0435 15.6972L72.5652 14.9918L72.0362 17.4959H74.1523L73.6233 19.3299H71.6482L70.8547 23.0507C70.7606 23.5092 70.7842 23.8266 70.9252 24.003C71.0781 24.1676 71.4072 24.2499 71.9128 24.2499C72.2302 24.2499 72.5829 24.1911 72.9708 24.0735L72.6181 25.7135C72.0538 25.9251 71.4072 26.0309 70.6784 26.0309Z" fill="#171422"/>
<path d="M76.0794 26.0309C74.5276 26.0309 73.9222 25.2433 74.2631 23.6679L76.3263 13.969H78.707L76.679 23.4739C76.6202 23.7678 76.6261 23.9736 76.6966 24.0911C76.7789 24.1969 76.9494 24.2499 77.208 24.2499C77.5137 24.2499 77.7959 24.2087 78.0545 24.1264L77.7194 25.7664C77.2257 25.9428 76.679 26.0309 76.0794 26.0309Z" fill="#171422"/>
<path d="M81.1351 15.9617L81.5231 14.0924H84.1154L83.7274 15.9617H81.1351ZM79.2306 25.8546L80.6237 19.2593H79.3717L79.9536 17.4959H83.3747L81.6113 25.8546H79.2306Z" fill="#171422"/>
<path d="M83.6555 25.8546L85.4189 17.4959H87.6232L87.5527 18.2894C87.9524 18.0308 88.4285 17.8074 88.9811 17.6193C89.5454 17.4195 90.1156 17.3195 90.6916 17.3195C92.8077 17.3195 93.6424 18.3776 93.1957 20.4937L92.0671 25.8546H89.6865L90.7974 20.6172C90.915 20.0529 90.8915 19.6532 90.7269 19.418C90.5623 19.1829 90.1861 19.0653 89.5983 19.0653C89.1633 19.0653 88.7459 19.1476 88.3462 19.3122C87.9465 19.4768 87.5938 19.6825 87.2882 19.9294L86.0361 25.8546H83.6555Z" fill="#171422"/>
<path d="M94.0049 25.8546L96.5267 13.969H98.9073L97.5142 20.5114L101.27 17.4959H103.986L99.8948 20.9169L102.417 25.8546H99.8948L98.1314 22.169L96.9675 23.1036L96.3856 25.8546H94.0049Z" fill="#171422"/>
<defs>
<linearGradient id="paint0_linear_125_531" x1="6.99927" y1="34.4999" x2="20.9993" y2="16.9999" gradientUnits="userSpaceOnUse">
<stop stop-color="#D6111E"/>
<stop offset="1" stop-color="#8C0009"/>
</linearGradient>
<linearGradient id="paint1_linear_125_531" x1="6.99927" y1="34.4999" x2="20.9993" y2="16.9999" gradientUnits="userSpaceOnUse">
<stop stop-color="#D6111E"/>
<stop offset="1" stop-color="#8C0009"/>
</linearGradient>
</defs>
</svg>
