<svg width="167" height="40" viewBox="0 0 167 40" fill="none" xmlns="http://www.w3.org/2000/svg">
<path d="M124.744 14.7158C124.744 14.0873 124.723 13.4577 124.749 12.8291C124.792 11.786 125.39 11.4296 126.345 11.8596C127.3 12.2906 128.27 12.6916 129.146 13.2776C130.054 13.8848 130.287 14.4408 130.041 15.4965C129.886 16.1628 129.931 16.8446 129.847 17.5158C129.567 19.7376 129.845 21.9536 129.955 24.1686C129.992 24.9037 130.306 25.602 130.339 26.3536C130.391 27.5807 129.768 28.0892 128.583 27.7231C128.168 27.5943 127.76 27.4403 127.35 27.294C126.179 26.8756 125.364 26.096 124.844 24.957C124.355 23.8877 123.79 22.8534 123.257 21.8044C123.191 21.6756 123.123 21.5468 123.042 21.4257C122.964 21.3066 122.88 21.1439 122.718 21.1778C122.525 21.2175 122.522 21.4151 122.508 21.573C122.47 21.9914 122.474 22.4098 122.553 22.8253C122.798 24.0969 122.876 25.3831 122.879 26.6751C122.881 27.4722 122.427 27.817 121.648 27.6098C121.255 27.5052 120.895 27.3279 120.553 27.109C119.806 26.6306 119.059 26.1521 118.307 25.6834C117.626 25.2592 117.242 24.6819 117.259 23.8519C117.297 22.064 117.226 20.2713 117.506 18.496C117.66 17.5207 117.383 16.5715 117.343 15.6078C117.307 14.7284 117.293 13.8441 117.027 12.9773C116.819 12.3003 117.351 11.5836 118.091 11.6253C119.645 11.7124 121.151 12.0495 122.072 13.4935C122.713 14.4989 123.268 15.5584 123.88 16.5812C124.028 16.8291 124.152 17.2621 124.486 17.1739C124.823 17.0858 124.707 16.649 124.72 16.3594C124.744 15.8122 124.726 15.263 124.726 14.7149H124.744V14.7158Z" fill="#008095"/>
<path d="M68.2557 27.8549C66.9908 27.9469 65.9612 27.3881 65.0034 26.6733C64.3312 26.1716 63.7549 25.5547 63.1341 24.992C62.462 24.3828 62.2469 23.6331 62.3186 22.7673C62.3506 22.3818 62.3951 21.9973 62.43 21.6118C62.4959 20.8816 62.3448 20.2143 61.9438 19.5847C61.5525 18.9707 61.6087 18.6617 62.1046 18.1184C62.2828 17.9227 62.4174 17.7106 62.4765 17.4511C62.5937 16.9319 62.7031 16.4109 62.8348 15.8956C62.9724 15.3571 62.8794 14.8787 62.5433 14.4351C62.3486 14.1784 62.1675 13.9101 62 13.6341C61.6222 13.0114 61.723 12.5813 62.3719 12.2385C62.9598 11.9276 63.6058 11.7271 64.2615 11.669C65.7859 11.5344 67.322 11.4026 68.8455 11.5712C70.3699 11.7397 71.4256 12.6859 72.1511 13.9818C72.5046 14.6133 72.1365 15.1499 71.3888 15.1295C70.6334 15.1092 69.8828 14.9726 69.1225 14.9871C68.277 15.0036 68.121 15.1402 68.0406 15.9876C68.0145 16.2598 67.9632 16.53 67.9283 16.8022C67.8566 17.3571 68.0329 17.5963 68.5966 17.6254C69.2242 17.6583 69.8557 17.6244 70.4823 17.6651C71.4421 17.7271 72.1365 18.2821 72.3806 19.1285C72.6402 20.0312 72.2324 20.6365 71.3084 20.7896C70.431 20.9348 69.5399 20.9232 68.6634 21.0559C67.9486 21.1634 67.7995 21.3426 67.7811 22.0758C67.7733 22.3983 67.7704 22.7218 67.7937 23.0433C67.8334 23.5905 68.0261 23.7862 68.5588 23.7455C69.506 23.6729 70.46 23.6428 71.3966 23.4617C72.8639 23.1789 74.0891 24.4167 73.7859 25.8985C73.6658 26.4825 73.2009 26.7721 72.6925 26.9697C71.2629 27.5247 69.7617 27.7106 68.2557 27.8549Z" fill="#008095"/>
<path d="M114.149 20.6007C114.131 21.4133 113.883 22.2889 113.734 23.176C113.268 25.9373 112.02 28.3228 110.175 30.4148C109.708 30.9455 109.326 31.5509 108.786 32.0225C107.701 32.9707 106.787 33.0463 105.592 32.2443C105.031 31.8676 104.442 31.5228 103.955 31.0453C103.327 30.4283 103.366 29.976 104.088 29.4782C104.874 28.9378 105.655 28.3964 106.237 27.6216C106.708 26.9949 106.672 26.6743 105.957 26.4022C104.893 25.9964 104.336 25.1993 103.945 24.1959C103.092 22.0041 102.638 19.7136 102.258 17.4065C102.12 16.5756 102.613 16.0952 103.446 16.2143C104.134 16.3121 104.822 16.3838 105.514 16.4254C105.932 16.4506 106.251 16.6182 106.462 16.993C106.548 17.145 106.65 17.3097 106.787 17.4085C107.71 18.0758 107.901 19.0608 107.976 20.0961C108.009 20.5465 108.009 20.9988 108.038 21.4492C108.052 21.6729 108.093 21.8966 108.139 22.1165C108.165 22.2404 108.213 22.3857 108.375 22.3789C108.532 22.3731 108.578 22.2288 108.606 22.1058C108.784 21.3378 109.054 20.5862 109.051 19.7843C109.047 18.8564 109.276 17.9615 109.439 17.0588C109.551 16.4458 109.853 16.2831 110.455 16.4293C111.277 16.6288 112.043 16.9426 112.72 17.4753C113.709 18.253 114.157 19.2651 114.149 20.6007Z" fill="#008095"/>
<path d="M87.2165 18.8302C87.1041 19.9846 86.9869 21.1294 87.1651 22.2984C87.3675 23.6273 87.6891 24.9183 88.1172 26.1871C88.1743 26.3546 88.2402 26.5212 88.2799 26.6936C88.4484 27.4055 88.1724 27.7745 87.4479 27.8365C86.1753 27.9459 84.9714 27.7522 83.8809 27.0461C83.5632 26.8408 83.2494 26.8476 82.923 27.0297C81.4256 27.8655 79.9942 27.6447 78.6586 26.6839C77.1651 25.6098 76.0184 24.2665 75.6591 22.3914C75.2213 20.1057 76.0862 18.3207 77.8305 16.9009C78.3438 16.4825 78.9404 16.1851 79.5361 15.8936C80.1143 15.6098 80.645 15.6553 81.1729 16.0302C81.7801 16.4612 81.8218 16.4534 82.368 15.9633C82.7109 15.6553 83.108 15.5701 83.538 15.6573C84.7545 15.9052 85.8382 16.4834 86.9172 17.0655C87.198 17.2176 87.2804 17.5062 87.2678 17.8161C87.2542 18.1541 87.2339 18.4922 87.2165 18.8302ZM82.2915 21.575C82.2857 21.575 82.2789 21.575 82.2731 21.575C82.2586 21.2699 82.2673 20.9599 82.2218 20.6597C82.1588 20.2413 81.876 20.1338 81.5235 20.3711C81.3608 20.4805 81.2252 20.6239 81.1438 20.8021C80.8426 21.4587 80.6944 22.1483 80.7816 22.8699C80.8455 23.4006 81.2358 23.5769 81.6842 23.2892C82.0571 23.05 82.2896 22.7149 82.2905 22.252C82.2915 22.0253 82.2915 21.8006 82.2915 21.575Z" fill="#008095"/>
<path d="M8.67215 11.634C9.99612 11.4761 11.2717 11.7754 12.4291 12.5609C12.9482 12.9144 13.355 13.3618 13.6087 13.9391C13.9177 14.6422 13.6649 15.08 12.893 15.1275C12.0252 15.1798 11.1525 15.1342 10.2847 15.2495C9.4121 15.3657 9.20193 15.6282 9.43825 16.466C9.8121 17.7938 9.56706 17.82 11.1661 17.8132C12.4136 17.8074 13.3676 18.4911 13.7104 19.5759C14.0213 20.5599 13.5399 21.2834 12.522 21.358C11.9429 21.4006 11.3646 21.448 10.7855 21.4761C9.9845 21.5158 9.70653 21.7648 9.69782 22.5715C9.68232 23.9604 9.64745 25.3434 9.3782 26.7129C9.17094 27.7657 8.81356 27.9856 7.84116 27.5585C7.11573 27.2398 6.38353 26.9677 5.6 26.8146C4.53559 26.6064 3.97772 25.8539 3.78014 24.8505C3.63874 24.1357 3.67651 23.4025 3.92155 22.6994C4.03874 22.3623 4.09782 22.0137 4.1598 21.664C4.23728 21.2233 4.1414 20.8388 3.86925 20.4824C3.71428 20.279 3.5661 20.0592 3.46925 19.8248C3.27554 19.3599 3.40532 18.9599 3.88958 18.6761C4.40096 18.3749 4.54237 17.9536 4.45327 17.4083C4.45036 17.3928 4.44648 17.3764 4.44648 17.3609C4.48329 16.1066 4.01162 15.0897 3.1845 14.1367C2.29733 13.1158 2.63728 12.28 3.99806 12.0824C5.52542 11.8597 7.04794 11.5158 8.67215 11.634Z" fill="#0DB14B"/>
<path d="M135.674 7.79782C136.026 7.5799 136.368 7.34067 136.733 7.14697C138.701 6.10096 140.747 5.23995 142.865 4.5368C144.106 4.12421 145.353 3.73099 146.629 3.46465C149.807 2.80121 152.997 2.29758 156.268 2.80993C157.961 3.0753 159.585 3.47046 161.048 4.39346C163.909 6.19975 164.933 9.26319 164.141 12.561C163.213 16.4312 160.954 19.4927 158.346 22.3576C158.019 22.716 157.62 22.8748 157.141 22.87C156.479 22.8632 155.818 22.8826 155.156 22.8642C154.786 22.8545 154.297 23.0007 154.121 22.56C153.958 22.1562 154.366 21.8966 154.616 21.639C155.616 20.6065 156.569 19.5334 157.398 18.3567C158.355 16.9959 159.237 15.5964 159.815 14.0167C160.396 12.4293 160.629 10.8041 160.181 9.18087C159.566 6.9523 157.872 5.7552 155.782 5.06174C153.278 4.23172 150.707 4.26852 148.12 4.53971C145.233 4.84285 142.461 5.60411 139.718 6.52324C138.616 6.89225 137.55 7.34939 136.45 7.71937C136.212 7.79976 135.967 7.86077 135.725 7.93051C135.708 7.88692 135.691 7.84237 135.674 7.79782Z" fill="#008095"/>
<path d="M41.4227 24.6674C41.4227 25.4335 41.4382 26.0466 41.4189 26.6587C41.3966 27.3783 41.0731 27.7512 40.3738 27.9091C39.9109 28.0137 39.4431 28.0078 38.9801 27.9178C38.2615 27.7783 37.5961 27.4829 36.9559 27.143C36.3583 26.8253 36.093 26.3178 36.1685 25.6195C36.306 24.3536 36.4145 23.0839 36.5307 21.8151C36.5482 21.6233 36.5666 21.4267 36.5433 21.2369C36.4997 20.8863 36.2993 20.6354 35.9535 20.5454C35.6 20.4543 35.3743 20.6645 35.1951 20.9367C35.014 21.2117 34.9278 21.5207 34.8755 21.8422C34.7448 22.6432 34.7264 23.4471 34.8155 24.2529C34.9046 25.0568 34.8901 25.8645 34.8542 26.6693C34.8184 27.4723 34.4474 27.7221 33.6678 27.5197C32.8387 27.3037 32.0368 27.0093 31.2552 26.6597C29.8131 26.0137 29.3123 25.0374 29.6833 23.5003C29.847 22.8233 29.9477 22.1444 30.0242 21.4539C30.1453 20.3585 30.183 19.2708 30.0106 18.1773C29.9273 17.6514 29.9332 17.1149 29.9758 16.5841C30.0261 15.9623 30.3583 15.7037 30.9588 15.8645C31.814 16.0931 32.677 16.3294 33.4344 16.8117C33.8489 17.0761 34.2712 17.1236 34.6644 16.8727C36.0058 16.0175 37.1913 16.3197 38.338 17.2679C38.7719 17.6262 39.2591 17.9207 39.6746 18.3052C40.4562 19.0296 40.955 19.8848 41.1041 20.9715C41.2794 22.2519 41.5128 23.5216 41.4227 24.6674Z" fill="#0DB14B"/>
<path d="M140.447 27.8664C137.333 27.8431 134.234 25.4616 133.463 22.4698C133.196 21.4364 133.415 20.4456 133.789 19.4896C134.285 18.2218 134.963 17.0819 136.23 16.4155C136.93 16.0475 137.68 15.8267 138.462 15.88C140.723 16.033 142.648 16.8678 144.023 18.7565C144.928 19.9981 145.079 22.2005 142.947 23.1264C141.781 23.632 140.601 23.9468 139.34 23.4887C139.234 23.4509 139.109 23.4141 139.026 23.5216C138.929 23.6465 139.009 23.7666 139.075 23.878C139.381 24.3971 140.254 24.7226 140.966 24.5569C141.55 24.4214 142.141 24.3497 142.738 24.3284C143.297 24.309 143.829 24.4059 144.257 24.8243C145.178 25.726 144.878 27.0005 143.637 27.3521C143.049 27.5187 142.445 27.633 141.841 27.7327C141.381 27.8083 140.911 27.8238 140.447 27.8664ZM140.333 19.9846C140.321 19.7521 140.31 19.4422 139.972 19.3289C139.656 19.2233 139.456 19.4267 139.296 19.6649C139.096 19.9613 138.95 20.2838 138.901 20.6402C138.854 20.9763 139.017 21.1197 139.349 21.0858C139.848 21.0344 140.297 20.5589 140.333 19.9846Z" fill="#008095"/>
<path d="M23.4519 27.8241C20.1812 27.8357 17.079 25.3495 16.3758 22.2561C16.186 21.4222 16.3632 20.6415 16.6199 19.8822C17.0799 18.5253 17.663 17.2333 19.0121 16.4875C19.7657 16.0711 20.5753 15.8386 21.4247 15.8958C23.2107 16.0159 24.8223 16.6105 26.1657 17.8367C26.892 18.4992 27.3511 19.3195 27.5816 20.2667C27.7986 21.1587 27.3288 22.2357 26.4242 22.7907C25.1613 23.5665 23.817 23.9917 22.3255 23.4958C22.2044 23.4551 22.063 23.395 21.9652 23.5161C21.8538 23.6536 21.9429 23.7912 22.0204 23.9151C22.3284 24.4052 23.169 24.7306 23.8276 24.5892C24.3332 24.4808 24.8397 24.3868 25.355 24.3403C25.7279 24.3074 26.0979 24.3248 26.4591 24.4246C27.1623 24.6173 27.6795 25.2846 27.6804 25.9917C27.6814 26.6386 27.2707 27.1732 26.5211 27.3553C25.4867 27.6062 24.4465 27.8493 23.4519 27.8241ZM23.2494 19.9113C23.2339 19.6769 23.1962 19.3921 22.8727 19.3021C22.5782 19.2197 22.3865 19.4105 22.2325 19.6294C22.0262 19.9219 21.8683 20.2396 21.8257 20.5989C21.7773 21.0038 21.969 21.1655 22.3719 21.0793C22.894 20.967 23.2591 20.5011 23.2494 19.9113Z" fill="#0DB14B"/>
<path d="M96.4242 16.1415C97.5981 16.1212 98.6877 16.4418 99.7104 16.9929C100.431 17.3822 100.896 17.9798 101.003 18.8127C101.13 19.7938 100.581 20.4689 99.5971 20.4776C98.8523 20.4844 98.1017 20.4398 97.6339 19.6941C97.4925 19.4684 97.2446 19.3532 96.9666 19.3677C96.7099 19.3812 96.4872 19.4849 96.3913 19.7386C96.2867 20.0147 96.4465 20.2045 96.6606 20.3469C97.2465 20.7362 97.939 20.8728 98.5772 21.1372C99.2969 21.4345 99.9061 21.8549 100.374 22.4776C101.272 23.6708 101.236 25.205 100.206 26.2859C98.7283 27.8374 96.9627 28.526 94.8252 27.8587C93.5555 27.4626 92.3322 26.9619 91.3356 26.0447C90.5424 25.3135 90.461 24.3798 91.077 23.5275C91.4993 22.9435 92.0204 22.835 92.6257 23.2418C93.0131 23.5023 93.3685 23.8084 93.7405 24.0912C94.0775 24.3478 94.461 24.4447 94.8794 24.3934C95.109 24.3653 95.3501 24.3168 95.4024 24.0466C95.4499 23.7997 95.263 23.6592 95.0741 23.5624C94.6296 23.3357 94.1821 23.1101 93.723 22.9135C92.5763 22.4224 91.8131 21.5856 91.355 20.4311C90.9308 19.3609 91.0877 18.5561 91.9371 17.7687C93.0605 16.7294 94.6935 16.1367 96.4242 16.1415Z" fill="#008095"/>
<path d="M146.651 22.0448C146.646 21.4811 146.648 20.9136 146.761 20.3596C146.872 19.8182 146.754 19.3397 146.449 18.8913C146.324 18.7044 146.199 18.5145 146.095 18.315C145.829 17.8056 145.907 17.4085 146.41 17.1199C146.892 16.8429 147.071 16.4603 147.069 15.9295C147.066 15.2496 147.193 14.5814 147.318 13.917C147.432 13.3145 147.848 12.9697 148.412 13.0685C149.54 13.2661 150.656 13.5218 151.66 14.1145C152.136 14.3954 152.36 14.8002 152.331 15.3581C152.29 16.1513 152.35 16.2317 153.096 16.5378C154.072 16.9378 154.612 17.6923 154.597 18.6308C154.586 19.2826 154.353 19.5973 153.723 19.8017C153.336 19.9276 152.934 19.9547 152.531 19.978C152.08 20.0041 151.817 20.2404 151.738 20.6802C151.57 21.6099 151.546 22.5349 151.795 23.4598C151.952 24.0419 152.251 24.5165 152.718 24.8971C153.104 25.2119 153.522 25.4956 153.842 25.884C154.185 26.2995 154.173 26.6831 153.758 27.024C153.063 27.5925 152.28 27.8792 151.374 27.6119C150.396 27.3242 149.464 26.9194 148.587 26.4022C147.338 25.6671 146.845 24.4671 146.659 23.1063C146.61 22.7586 146.651 22.3993 146.651 22.0448Z" fill="#008095"/>
<path d="M127.487 36.9253C125.482 37.0744 123.535 36.8468 121.665 36.1524C120.292 35.643 119.02 34.9495 118.097 33.7592C117.944 33.5616 117.675 33.3049 117.848 33.0861C118.053 32.8265 118.317 33.1141 118.517 33.2371C120.46 34.4236 122.599 34.8759 124.84 34.9321C127.911 35.0086 130.901 34.5146 133.85 33.674C137.859 32.5301 141.65 30.8923 145.244 28.7907C145.964 28.3693 146.692 28.1301 147.533 28.1785C148.305 28.2221 149.081 28.1834 149.855 28.2008C150.134 28.2076 150.59 28.1785 150.59 28.5175C150.59 28.9592 150.354 29.0173 150.121 29.181C148.136 30.5776 145.984 31.6856 143.815 32.7548C140.957 34.163 137.976 35.2662 134.882 36.0178C132.453 36.6066 130.001 37.1296 127.487 36.9253Z" fill="#0DB14B"/>
<path d="M43.537 23.8968C43.6222 21.707 43.6861 19.5162 43.9903 17.3428C44.1355 16.3055 44.6014 16.0256 45.5554 16.4392C46.4581 16.8305 47.3365 17.2711 48.1636 17.8087C48.9065 18.291 49.2348 19.0774 48.9065 19.9036C48.2382 21.582 48.369 23.2818 48.6363 24.998C48.7254 25.5714 48.8581 26.1389 48.8532 26.722C48.8464 27.551 48.2779 27.9966 47.5012 27.7167C46.4716 27.3447 45.4595 26.9215 44.4561 26.4837C44.0028 26.2861 43.7375 25.8852 43.6716 25.3903C43.6067 24.8934 43.5806 24.3937 43.537 23.8968Z" fill="#0DB14B"/>
<path d="M4.63729 28.7036H3.58838V34.9545H4.63729V28.7036Z" fill="black"/>
<path d="M5.96997 30.4912H6.99757V34.9532H5.96997V30.4912ZM8.61404 34.9541V32.25C8.61404 31.9808 8.54237 31.7735 8.39903 31.6292C8.25569 31.4849 8.0523 31.4122 7.78886 31.4122C7.53704 31.4122 7.3414 31.481 7.20387 31.6185C7.06634 31.7561 6.99757 31.9478 6.99757 32.1948L6.9075 31.2708C7.03922 31.0016 7.20678 30.7934 7.41017 30.6471C7.61356 30.5009 7.85762 30.4282 8.1414 30.4282C8.61985 30.4282 8.98982 30.5871 9.25036 30.9038C9.51089 31.2205 9.64164 31.6679 9.64164 32.2471V34.9551H8.61404V34.9541Z" fill="black"/>
<path d="M10.5443 30.4912H12.6421V31.39H10.5443V30.4912ZM12.092 34.9754C11.7104 34.9754 11.4344 34.8737 11.262 34.6704C11.0896 34.467 11.0044 34.1745 11.0044 33.7929V29.1934H12.032V33.6515C12.032 33.757 12.0533 33.8403 12.0959 33.9004C12.1385 33.9604 12.2024 33.9904 12.2847 33.9904H12.6412V34.9754H12.092Z" fill="black"/>
<path d="M15.63 35.018C14.9966 35.018 14.5046 34.8447 14.1549 34.4979C13.8053 34.1512 13.63 33.6582 13.63 33.019V32.5163C13.63 31.8519 13.7976 31.3367 14.1327 30.9725C14.4678 30.6084 14.9414 30.4263 15.5516 30.4263C16.1278 30.4263 16.5733 30.6374 16.8881 31.0606C17.2039 31.4829 17.3608 32.0786 17.3608 32.8466V33.1391H14.3302V32.3866H16.4068L16.4019 32.3391C16.3729 32.0292 16.2857 31.788 16.1394 31.6146C15.9932 31.4413 15.7966 31.3541 15.5506 31.3541C15.2436 31.3541 15.0053 31.451 14.8348 31.6447C14.6644 31.8384 14.5792 32.1125 14.5792 32.4679V33.0355C14.5792 33.3735 14.6712 33.634 14.8542 33.8161C15.0373 33.9982 15.2959 34.0892 15.6281 34.0892C15.7976 34.0892 15.9641 34.0573 16.1288 33.9924C16.2934 33.9275 16.4416 33.8384 16.5733 33.7241L17.2436 34.3517C17.0169 34.5638 16.7632 34.7275 16.4804 34.8437C16.2014 34.9599 15.9167 35.018 15.63 35.018Z" fill="black"/>
<path d="M18.4803 30.4912H19.5506V34.9532H18.4803V30.4912ZM20.9656 31.6398C20.8997 31.5653 20.8155 31.5091 20.7138 31.4704C20.6121 31.4316 20.4949 31.4122 20.3632 31.4122C20.1055 31.4122 19.905 31.4887 19.7636 31.6427C19.6222 31.7967 19.5506 32.0089 19.5506 32.281L19.4605 31.2708C19.5893 31.0074 19.7578 30.8011 19.9661 30.6519C20.1733 30.5028 20.4029 30.4282 20.6518 30.4282C20.8464 30.4282 21.0227 30.4573 21.1806 30.5163C21.3385 30.5754 21.476 30.6616 21.5932 30.7759L20.9656 31.6398Z" fill="black"/>
<path d="M22.2383 30.4912H23.2659V34.9532H22.2383V30.4912ZM24.8814 34.9541V32.25C24.8814 31.9808 24.8097 31.7735 24.6664 31.6292C24.523 31.4849 24.3196 31.4122 24.0562 31.4122C23.8044 31.4122 23.6087 31.481 23.4712 31.6185C23.3337 31.7561 23.2649 31.9478 23.2649 32.1948L23.1748 31.2708C23.3066 31.0016 23.4741 30.7934 23.6775 30.6471C23.8809 30.5009 24.125 30.4282 24.4087 30.4282C24.8872 30.4282 25.2572 30.5871 25.5177 30.9038C25.7782 31.2205 25.909 31.6679 25.909 32.2471V34.9551H24.8814V34.9541Z" fill="black"/>
<path d="M29.0256 35.018C28.3922 35.018 27.9002 34.8447 27.5506 34.4979C27.2009 34.1512 27.0256 33.6582 27.0256 33.019V32.5163C27.0256 31.8519 27.1932 31.3367 27.5283 30.9725C27.8634 30.6084 28.337 30.4263 28.9472 30.4263C29.5235 30.4263 29.969 30.6374 30.2837 31.0606C30.5995 31.4829 30.7564 32.0786 30.7564 32.8466V33.1391H27.7259V32.3866H29.8024L29.7976 32.3391C29.7685 32.0292 29.6813 31.788 29.5351 31.6146C29.3888 31.4413 29.1922 31.3541 28.9462 31.3541C28.6392 31.3541 28.4009 31.451 28.2305 31.6447C28.06 31.8384 27.9748 32.1125 27.9748 32.4679V33.0355C27.9748 33.3735 28.0668 33.634 28.2498 33.8161C28.4329 33.9982 28.6915 34.0892 29.0237 34.0892C29.1932 34.0892 29.3598 34.0573 29.5244 33.9924C29.6891 33.9275 29.8373 33.8384 29.969 33.7241L30.6392 34.3517C30.4126 34.5638 30.1588 34.7275 29.876 34.8437C29.5971 34.9599 29.3123 35.018 29.0256 35.018Z" fill="black"/>
<path d="M31.5322 30.4912H33.6301V31.39H31.5322V30.4912ZM33.0799 34.9754C32.6983 34.9754 32.4223 34.8737 32.2499 34.6704C32.0775 34.467 31.9923 34.1745 31.9923 33.7929V29.1934H33.0199V33.6515C33.0199 33.757 33.0412 33.8403 33.0838 33.9004C33.1264 33.9604 33.1903 33.9904 33.2727 33.9904H33.6291V34.9754H33.0799Z" fill="black"/>
<path d="M39.1196 35.0183C38.8184 35.0183 38.5298 34.9883 38.2538 34.9302C37.9768 34.8711 37.7182 34.7849 37.478 34.6697C37.2378 34.5554 37.015 34.413 36.8116 34.2445L37.3579 33.4232C37.5991 33.6266 37.8693 33.7806 38.1685 33.8852C38.4678 33.9898 38.7855 34.0421 39.1206 34.0421C39.539 34.0421 39.8635 33.9675 40.094 33.8183C40.3245 33.6692 40.4397 33.459 40.4397 33.1869V33.182C40.4397 32.9728 40.3816 32.812 40.2654 32.7007C40.1492 32.5893 39.9971 32.506 39.8073 32.4537C39.6184 32.4004 39.4121 32.3559 39.1884 32.3181C38.9501 32.2813 38.709 32.2348 38.4639 32.1786C38.2189 32.1225 37.9942 32.0353 37.7889 31.9162C37.5836 31.797 37.4189 31.6266 37.2949 31.4048C37.17 31.183 37.108 30.8866 37.108 30.5166V30.5128C37.108 29.9171 37.3046 29.4551 37.6988 29.1288C38.093 28.8024 38.6499 28.6387 39.3685 28.6387C39.7037 28.6387 40.0388 28.6939 40.3748 28.8043C40.7099 28.9147 41.0296 29.0774 41.3337 29.2924L40.8349 30.1389C40.5937 29.9636 40.3487 29.8329 40.0998 29.7457C39.8499 29.6585 39.6068 29.615 39.3685 29.615C38.9734 29.615 38.6673 29.6876 38.4504 29.8319C38.2344 29.9762 38.1259 30.1806 38.1259 30.444V30.4479C38.1259 30.6658 38.1899 30.8314 38.3177 30.9447C38.4455 31.058 38.6112 31.1423 38.8165 31.1965C39.0208 31.2508 39.2426 31.3031 39.4809 31.3515C39.7162 31.397 39.9506 31.4532 40.184 31.5191C40.4175 31.5849 40.6305 31.6798 40.8223 31.8028C41.0141 31.9258 41.1681 32.0963 41.2843 32.3123C41.4005 32.5283 41.4586 32.8101 41.4586 33.1568V33.1656C41.4586 33.7564 41.2543 34.2125 40.8455 34.535C40.4368 34.8576 39.8625 35.0183 39.1196 35.0183Z" fill="black"/>
<path d="M44.4038 35.018C43.7704 35.018 43.2784 34.8447 42.9288 34.4979C42.5791 34.1512 42.4048 33.6582 42.4048 33.019V32.5163C42.4048 31.8519 42.5723 31.3367 42.9074 30.9725C43.2426 30.6084 43.7152 30.4263 44.3263 30.4263C44.9026 30.4263 45.3481 30.6374 45.6629 31.0606C45.9786 31.4829 46.1355 32.0786 46.1355 32.8466V33.1391H43.105V32.3866H45.1815L45.1767 32.3391C45.1476 32.0292 45.0605 31.788 44.9142 31.6146C44.768 31.4413 44.5714 31.3541 44.3254 31.3541C44.0183 31.3541 43.7801 31.451 43.6096 31.6447C43.4392 31.8384 43.3539 32.1125 43.3539 32.4679V33.0355C43.3539 33.3735 43.4459 33.634 43.629 33.8161C43.8121 33.9982 44.0706 34.0892 44.4028 34.0892C44.5723 34.0892 44.7389 34.0573 44.9036 33.9924C45.0682 33.9275 45.2164 33.8384 45.3481 33.7241L46.0183 34.3517C45.7917 34.5638 45.538 34.7275 45.2551 34.8437C44.9743 34.9599 44.6895 35.018 44.4038 35.018Z" fill="black"/>
<path d="M47.2533 30.4912H48.3235V34.9532H47.2533V30.4912ZM49.7385 31.6398C49.6727 31.5653 49.5884 31.5091 49.4867 31.4704C49.385 31.4316 49.2678 31.4122 49.1361 31.4122C48.8785 31.4122 48.678 31.4887 48.5366 31.6427C48.3942 31.7958 48.3235 32.0089 48.3235 32.281L48.2334 31.2708C48.3623 31.0074 48.5308 30.8011 48.739 30.6519C48.9463 30.5028 49.1758 30.4282 49.4247 30.4282C49.6194 30.4282 49.7957 30.4573 49.9535 30.5163C50.1114 30.5754 50.2489 30.6616 50.3661 30.7759L49.7385 31.6398Z" fill="black"/>
<path d="M52.5888 33.4839L53.5951 30.4912H54.6392L52.9627 34.9542H52.215L50.5385 30.4912H51.5825L52.5888 33.4839Z" fill="black"/>
<path d="M55.3831 28.7036H56.4058V29.7312H55.3831V28.7036ZM55.3831 30.4915H56.4058V34.9535H55.3831V30.4915Z" fill="black"/>
<path d="M59.4673 35.018C58.8426 35.018 58.3573 34.8427 58.0116 34.4931C57.6658 34.1435 57.4934 33.6505 57.4934 33.0142V32.4079C57.4934 31.7774 57.6658 31.2892 58.0096 30.9444C58.3535 30.5996 58.8397 30.4263 59.4673 30.4263C59.8256 30.4263 60.1491 30.4883 60.4368 30.6113C60.7244 30.7343 60.9549 30.9105 61.1263 31.1401L60.43 31.7938C60.3157 31.6708 60.1791 31.5759 60.0213 31.51C59.8634 31.4442 59.6978 31.4112 59.5225 31.4112C59.2048 31.4112 58.9578 31.4984 58.7825 31.6737C58.6072 31.849 58.52 32.0941 58.52 32.4088V33.0151C58.52 33.3386 58.6072 33.5895 58.7825 33.7677C58.9578 33.9459 59.2038 34.034 59.5225 34.034C59.6968 34.034 59.8634 33.9982 60.0213 33.9265C60.1791 33.8548 60.3147 33.7531 60.43 33.6214L61.1263 34.3178C60.9539 34.5415 60.7234 34.7139 60.4338 34.836C60.1452 34.957 59.8227 35.018 59.4673 35.018Z" fill="black"/>
<path d="M63.8779 35.018C63.2445 35.018 62.7525 34.8447 62.4029 34.4979C62.0532 34.1512 61.8789 33.6582 61.8789 33.019V32.5163C61.8789 31.8519 62.0465 31.3367 62.3816 30.9725C62.7167 30.6084 63.1893 30.4263 63.8005 30.4263C64.3767 30.4263 64.8222 30.6374 65.137 31.0606C65.4528 31.4829 65.6097 32.0786 65.6097 32.8466V33.1391H62.5791V32.3866H64.6557L64.6508 32.3391C64.6218 32.0292 64.5346 31.788 64.3883 31.6146C64.2421 31.4413 64.0455 31.3541 63.7995 31.3541C63.4925 31.3541 63.2542 31.451 63.0837 31.6447C62.9133 31.8384 62.8281 32.1125 62.8281 32.4679V33.0355C62.8281 33.3735 62.9201 33.634 63.1031 33.8161C63.2862 33.9982 63.5448 34.0892 63.877 34.0892C64.0465 34.0892 64.213 34.0573 64.3777 33.9924C64.5423 33.9275 64.6905 33.8384 64.8222 33.7241L65.4925 34.3517C65.2658 34.5638 65.0121 34.7275 64.7293 34.8437C64.4494 34.9599 64.1646 35.018 63.8779 35.018Z" fill="black"/>
<path d="M69.1787 28.7036H70.2063V34.9545H69.1787V28.7036ZM69.6727 32.5293V31.5453H71.6717C71.9206 31.5453 72.1221 31.46 72.276 31.2896C72.4291 31.1191 72.5066 30.8964 72.5066 30.6213C72.5066 30.3375 72.431 30.1109 72.279 29.9424C72.1269 29.7729 71.9245 29.6886 71.6727 29.6886H69.6736V28.7046H71.6426C72.0291 28.7046 72.3661 28.784 72.6528 28.9428C72.9395 29.1017 73.1632 29.3244 73.324 29.6111C73.4848 29.8978 73.5642 30.2349 73.5642 30.6213C73.5642 31.0058 73.4838 31.3409 73.324 31.6276C73.1632 31.9143 72.9395 32.1361 72.6509 32.2939C72.3632 32.4518 72.0271 32.5302 71.6426 32.5302H69.6727V32.5293Z" fill="black"/>
<path d="M74.3594 30.4912H75.4296V34.9532H74.3594V30.4912ZM76.8436 31.6398C76.7778 31.5653 76.6935 31.5091 76.5918 31.4704C76.4901 31.4316 76.3729 31.4122 76.2412 31.4122C75.9836 31.4122 75.7831 31.4887 75.6417 31.6427C75.4993 31.7958 75.4286 32.0089 75.4286 32.281L75.3386 31.2708C75.4674 31.0074 75.6359 30.8011 75.8441 30.6519C76.0514 30.5028 76.2809 30.4282 76.5298 30.4282C76.7245 30.4282 76.9008 30.4573 77.0586 30.5163C77.2165 30.5754 77.354 30.6616 77.4712 30.7759L76.8436 31.6398Z" fill="black"/>
<path d="M79.7841 35.018C79.1845 35.018 78.7216 34.8486 78.3933 34.5086C78.0649 34.1687 77.9012 33.6912 77.9012 33.0752V32.3488C77.9012 31.7386 78.0649 31.265 78.3933 30.9299C78.7216 30.5948 79.1845 30.4272 79.7841 30.4272C80.3826 30.4272 80.8465 30.5948 81.1749 30.9299C81.5032 31.265 81.6669 31.7386 81.6669 32.3488V33.0878C81.6669 33.7009 81.5032 34.1764 81.1749 34.5125C80.8465 34.8505 80.3836 35.018 79.7841 35.018ZM79.7841 34.034C80.0562 34.034 80.2673 33.9507 80.4155 33.7851C80.5647 33.6185 80.6393 33.3871 80.6393 33.0887V32.3488C80.6393 32.0505 80.5647 31.82 80.4155 31.6563C80.2664 31.4926 80.0562 31.4113 79.7841 31.4113C79.5148 31.4113 79.3046 31.4926 79.1545 31.6563C79.0044 31.82 78.9288 32.0505 78.9288 32.3488V33.0878C78.9288 33.3861 79.0044 33.6185 79.1545 33.7841C79.3046 33.9507 79.5148 34.034 79.7841 34.034Z" fill="black"/>
<path d="M84.2344 33.4839L85.2398 30.4912H86.2848L84.6083 34.9542H83.8596L82.1831 30.4912H83.2281L84.2344 33.4839Z" fill="black"/>
<path d="M87.0286 28.7036H88.0513V29.7312H87.0286V28.7036ZM87.0286 30.4915H88.0513V34.9535H87.0286V30.4915Z" fill="black"/>
<path d="M90.6606 35.0271C90.1763 35.0271 89.8015 34.8634 89.5361 34.537C89.2707 34.2106 89.1381 33.7487 89.1381 33.153V32.3017C89.1381 31.7031 89.2688 31.2392 89.5313 30.9109C89.7937 30.5826 90.1628 30.4189 90.6383 30.4189C90.8882 30.4189 91.1168 30.4886 91.326 30.629C91.5352 30.7695 91.7027 30.9671 91.8286 31.2227L91.7385 32.1729C91.7385 32.0014 91.7085 31.8552 91.6485 31.7341C91.5884 31.614 91.5013 31.522 91.386 31.4591C91.2717 31.3961 91.1323 31.3641 90.9686 31.3641C90.7139 31.3641 90.5153 31.4465 90.3749 31.6111C90.2344 31.7758 90.1637 32.0092 90.1637 32.3094V33.152C90.1637 33.4474 90.2335 33.676 90.3749 33.8378C90.5153 33.9995 90.7129 34.0809 90.9686 34.0809C91.1323 34.0809 91.2707 34.0489 91.386 33.984C91.5003 33.9191 91.5884 33.8271 91.6485 33.707C91.7085 33.5869 91.7385 33.4416 91.7385 33.2731L91.7986 34.2533C91.7153 34.4741 91.5778 34.6581 91.3841 34.8053C91.1923 34.9535 90.9502 35.0271 90.6606 35.0271ZM91.7405 28.7036H92.7681V34.9545H91.7405V28.7036Z" fill="black"/>
<path d="M95.8838 35.018C95.2504 35.018 94.7584 34.8447 94.4087 34.4979C94.0591 34.1512 93.8838 33.6582 93.8838 33.019V32.5163C93.8838 31.8519 94.0513 31.3367 94.3864 30.9725C94.7216 30.6084 95.1942 30.4263 95.8053 30.4263C96.3816 30.4263 96.8271 30.6374 97.1419 31.0606C97.4576 31.4829 97.6145 32.0786 97.6145 32.8466V33.1391H94.584V32.3866H96.6605L96.6557 32.3391C96.6266 32.0292 96.5395 31.788 96.3932 31.6146C96.247 31.4413 96.0504 31.3541 95.8044 31.3541C95.4973 31.3541 95.2591 31.451 95.0886 31.6447C94.9182 31.8384 94.8329 32.1125 94.8329 32.4679V33.0355C94.8329 33.3735 94.925 33.634 95.108 33.8161C95.2911 33.9982 95.5496 34.0892 95.8819 34.0892C96.0504 34.0892 96.2179 34.0573 96.3826 33.9924C96.5472 33.9275 96.6954 33.8384 96.8271 33.7241L97.4973 34.3517C97.2707 34.5638 97.017 34.7275 96.7341 34.8437C96.4552 34.9599 96.1705 35.018 95.8838 35.018Z" fill="black"/>
<path d="M98.7341 30.4912H99.8044V34.9532H98.7341V30.4912ZM101.219 31.6398C101.154 31.5653 101.069 31.5091 100.968 31.4704C100.866 31.4316 100.749 31.4122 100.617 31.4122C100.359 31.4122 100.159 31.4887 100.017 31.6427C99.876 31.7958 99.8044 32.0089 99.8044 32.281L99.7143 31.2708C99.8431 31.0074 100.012 30.8011 100.22 30.6519C100.427 30.5028 100.657 30.4282 100.906 30.4282C101.1 30.4282 101.277 30.4573 101.434 30.5163C101.592 30.5754 101.73 30.6616 101.847 30.7759L101.219 31.6398Z" fill="black"/>
<path d="M50.2053 11.8848C50.2053 11.8674 50.2043 11.85 50.2034 11.8335C50.2131 11.8393 50.2218 11.8441 50.2315 11.8509C50.2237 11.8732 50.215 11.8955 50.2043 11.9178C50.2053 11.9071 50.2053 11.8955 50.2053 11.8848Z" fill="#F7931E"/>
<path d="M51.3753 13.7554C51.2146 14.9477 49.6494 15.8842 47.7405 15.8842C45.726 15.8842 44.093 14.8402 44.093 13.553C44.093 13.2963 44.1579 13.0503 44.277 12.8198C44.2683 12.8867 44.2635 12.9535 44.2635 13.0222C44.2635 14.3094 45.8964 15.3535 47.9119 15.3535C49.5255 15.3535 50.895 14.6833 51.3753 13.7554Z" fill="#F7931E"/>
<path d="M50.2053 11.8848C50.2053 11.8674 50.2043 11.85 50.2034 11.8335C50.2131 11.8393 50.2218 11.8441 50.2315 11.8509C50.2237 11.8732 50.215 11.8955 50.2043 11.9178C50.2053 11.9071 50.2053 11.8955 50.2053 11.8848Z" fill="#F7931E"/>
<path d="M45.4954 11.7176C45.4915 11.7186 45.4867 11.7205 45.4828 11.7234C45.4867 11.7157 45.4896 11.7089 45.4944 11.7012C45.4944 11.707 45.4944 11.7128 45.4954 11.7176Z" fill="#F7931E"/>
<path d="M51.5458 13.2246C51.539 13.275 51.5303 13.3234 51.5187 13.3728C51.4877 13.5045 51.4393 13.6324 51.3754 13.7554C51.3821 13.706 51.386 13.6556 51.388 13.6052C51.3889 13.5878 51.3889 13.5704 51.3889 13.5529C51.3889 13.5132 51.387 13.4735 51.3841 13.4338C51.4441 13.366 51.4974 13.2963 51.5458 13.2246Z" fill="#F7931E"/>
<path d="M50.2053 11.8848C50.2053 11.8674 50.2043 11.85 50.2034 11.8335C50.2131 11.8393 50.2218 11.8441 50.2315 11.8509C50.2237 11.8732 50.215 11.8955 50.2043 11.9178C50.2053 11.9071 50.2053 11.8955 50.2053 11.8848Z" fill="#F7931E"/>
<path d="M45.4954 11.7176C45.4915 11.7186 45.4867 11.7205 45.4828 11.7234C45.4867 11.7157 45.4896 11.7089 45.4944 11.7012C45.4944 11.707 45.4944 11.7128 45.4954 11.7176Z" fill="#F7931E"/>
<path d="M51.3889 13.418C51.3889 13.4373 51.3889 13.4557 51.3879 13.4751C50.8591 14.3894 49.6175 15.0306 48.1705 15.0306C46.2431 15.0306 44.6809 13.8925 44.6809 12.4882C44.6809 12.4688 44.6809 12.4494 44.6819 12.4301C44.7313 12.3448 44.7865 12.2625 44.8485 12.1821C44.9395 13.5274 46.4649 14.5967 48.3332 14.5967C49.6456 14.5967 50.7894 14.0698 51.3841 13.2882C51.387 13.3318 51.3889 13.3753 51.3889 13.418Z" fill="#F7931E"/>
<path d="M51.5458 13.2246C51.539 13.275 51.5303 13.3234 51.5187 13.3728C51.4809 13.4522 51.4373 13.5297 51.3879 13.6052C51.3889 13.5878 51.3889 13.5704 51.3889 13.5529C51.3889 13.5132 51.3869 13.4735 51.384 13.4338C51.4441 13.366 51.4973 13.2963 51.5458 13.2246Z" fill="#F7931E"/>
<path d="M50.2053 11.8848C50.2053 11.8674 50.2043 11.85 50.2034 11.8335C50.2131 11.8393 50.2218 11.8441 50.2315 11.8509C50.2237 11.8732 50.215 11.8955 50.2043 11.9178C50.2053 11.9071 50.2053 11.8955 50.2053 11.8848Z" fill="#F7931E"/>
<path d="M45.4954 11.7176C45.4915 11.7186 45.4867 11.7205 45.4828 11.7234C45.4867 11.7157 45.4896 11.7089 45.4944 11.7012C45.4944 11.707 45.4944 11.7128 45.4954 11.7176Z" fill="#F7931E"/>
<path d="M50.2053 11.8848C50.2053 11.8674 50.2043 11.85 50.2034 11.8335C50.2131 11.8393 50.2218 11.8441 50.2315 11.8509C50.2237 11.8732 50.215 11.8955 50.2043 11.9178C50.2053 11.9071 50.2053 11.8955 50.2053 11.8848Z" fill="#F7931E"/>
<path d="M51.0809 12.6141C50.8436 13.4819 49.6591 14.1405 48.2334 14.1405C46.6364 14.1405 45.3424 13.3134 45.3424 12.2926C45.3424 12.094 45.3918 11.9023 45.4828 11.7231C45.4867 11.7202 45.4916 11.7183 45.4954 11.7173C45.5361 12.7149 46.8146 13.5149 48.3855 13.5149C49.5255 13.5149 50.5104 13.0936 50.9811 12.4815C51.017 12.5241 51.0499 12.5686 51.0809 12.6141Z" fill="#F7931E"/>
<path d="M45.4954 11.7176C45.4915 11.7186 45.4867 11.7205 45.4828 11.7234C45.4867 11.7157 45.4896 11.7089 45.4944 11.7012C45.4944 11.707 45.4944 11.7128 45.4954 11.7176Z" fill="#F7931E"/>
<path d="M50.2043 11.9178C50.1772 12.5512 49.3646 13.0597 48.3661 13.0597C47.3511 13.0597 46.5278 12.5338 46.5278 11.8849C46.5278 11.7677 46.554 11.6554 46.6043 11.5488C46.6034 11.5595 46.6034 11.5711 46.6034 11.5818C46.6034 12.2307 47.4266 12.7566 48.4416 12.7566C49.2746 12.7566 49.9787 12.4031 50.2043 11.9178Z" fill="#F7931E"/>
<path d="M50.2043 11.9178C50.2053 11.9071 50.2053 11.8955 50.2053 11.8848C50.2053 11.8674 50.2043 11.85 50.2034 11.8335C50.2131 11.8393 50.2218 11.8441 50.2315 11.8509C50.2237 11.8732 50.215 11.8955 50.2043 11.9178Z" fill="#F7931E"/>
<path d="M49.8954 11.673C49.7327 12.0885 49.1429 12.3975 48.4417 12.3975C47.6146 12.3975 46.9443 11.9684 46.9443 11.4406C46.9443 11.3844 46.9521 11.3292 46.9666 11.2759C47.2155 11.2411 47.4751 11.2227 47.7405 11.2227C48.5463 11.2227 49.292 11.3892 49.8954 11.673Z" fill="#F7931E"/>
</svg>
