<svg width="24" height="24" viewBox="0 0 24 24" fill="none" xmlns="http://www.w3.org/2000/svg">
<rect width="24" height="24" rx="4" fill="url(#paint0_linear_463_6777)"/>
<path d="M9.67334 6.64515C9.82462 6.55164 9.97133 6.44899 10.128 6.36587C10.9725 5.91701 11.8503 5.54755 12.7592 5.24582C13.2916 5.06877 13.8269 4.90004 14.3742 4.78575C15.7382 4.50106 17.1068 4.28495 18.5107 4.5048C19.2372 4.61867 19.9341 4.78824 20.5617 5.18431C21.7894 5.95941 22.2287 7.27396 21.8891 8.68908C21.4906 10.3498 20.5214 11.6636 19.4022 12.8929C19.2621 13.0467 19.0909 13.1148 18.8852 13.1128C18.6013 13.1098 18.3175 13.1182 18.0336 13.1103C17.8748 13.1061 17.665 13.1689 17.5893 12.9798C17.5195 12.8065 17.6945 12.6951 17.8017 12.5845C18.231 12.1415 18.64 11.681 18.9953 11.176C19.4063 10.5921 19.7845 9.99158 20.0326 9.31373C20.282 8.63256 20.3818 7.93518 20.1897 7.23863C19.9258 6.28233 19.1989 5.76865 18.3021 5.47107C17.2277 5.1149 16.1243 5.1307 15.0142 5.24706C13.7753 5.37715 12.5859 5.70381 11.4089 6.09822C10.9359 6.25656 10.4784 6.45273 10.0067 6.61149C9.90442 6.64598 9.79927 6.67217 9.69537 6.70209C9.6883 6.68339 9.68082 6.66427 9.67334 6.64515Z" fill="white"/>
<path d="M6.43391 19.5701C5.51701 19.6209 4.62669 19.5433 3.77135 19.3065C3.1437 19.1328 2.56166 18.8964 2.13953 18.4905C2.06955 18.4231 1.94641 18.3356 2.02569 18.2609C2.1196 18.1724 2.24008 18.2705 2.33177 18.3125C3.22033 18.717 4.19836 18.8713 5.22334 18.8904C6.62793 18.9165 7.99531 18.7481 9.34409 18.4614C11.1774 18.0714 12.9116 17.5129 14.5549 16.7963C14.8845 16.6526 15.2171 16.571 15.6021 16.5876C15.9551 16.6024 16.3099 16.5892 16.6638 16.5952C16.7914 16.5975 17 16.5876 17 16.7031C17 16.8537 16.8924 16.8736 16.7856 16.9294C15.8776 17.4056 14.8933 17.7834 13.9016 18.148C12.5944 18.6282 11.231 19.0043 9.81626 19.2606C8.70535 19.4614 7.58381 19.6398 6.43391 19.5701Z" fill="white"/>
<defs>
<linearGradient id="paint0_linear_463_6777" x1="4.09788e-08" y1="24" x2="24" y2="4.09788e-08" gradientUnits="userSpaceOnUse">
<stop stop-color="#0DB14B"/>
<stop offset="1" stop-color="#008095"/>
</linearGradient>
</defs>
</svg>
