<svg width="200" height="101" viewBox="0 0 200 101" fill="none" xmlns="http://www.w3.org/2000/svg">
<path d="M189.547 100C195.07 100 199.599 95.5116 199.048 90.0163C196.755 67.1613 186.643 45.6749 170.258 29.2893C151.504 10.5357 126.068 2.00233e-06 99.5468 0C73.0252 -2.00233e-06 47.5898 10.5357 28.8362 29.2893C12.4506 45.6749 2.33862 67.1613 0.0461392 90.0163C-0.505066 95.5116 4.02398 100 9.54683 100C15.0697 100 19.4823 95.5054 20.1708 90.0257C22.3744 72.486 30.3459 56.0639 42.9783 43.4314C57.9812 28.4285 78.3295 20 99.5468 20C120.764 20 141.112 28.4286 156.115 43.4315C168.748 56.0639 176.719 72.486 178.923 90.0257C179.611 95.5054 184.024 100 189.547 100Z" fill="#EDEDED"/>
<path d="M9.54598 100.13C4.02313 100.13 -0.505816 95.6414 0.0455562 90.1461C0.878077 81.8488 2.74529 73.6878 5.60352 65.854C7.49651 60.6657 13.5265 58.5933 18.4999 60.9948C23.4733 63.3963 25.4928 69.3623 23.7301 74.5963C22.0277 79.651 20.8352 84.8635 20.1702 90.1555C19.4816 95.6353 15.0688 100.13 9.54598 100.13Z" fill="#D6111E"/>
</svg>
