<svg width="200" height="105" viewBox="0 0 200 105" fill="none" xmlns="http://www.w3.org/2000/svg">
<path d="M190.047 100C195.57 100 200.099 95.5116 199.547 90.0163C197.255 67.1613 187.143 45.6749 170.757 29.2893C152.004 10.5357 126.568 2.00233e-06 100.047 0C73.5251 -2.00233e-06 48.0897 10.5357 29.336 29.2893C12.9505 45.6749 2.8385 67.1613 0.546017 90.0163C-0.00518799 95.5116 4.52386 100 10.0467 100C15.5696 100 19.9822 95.5054 20.6706 90.0257C22.8743 72.486 30.8457 56.0639 43.4782 43.4314C58.4811 28.4285 78.8294 20 100.047 20C121.264 20 141.612 28.4286 156.615 43.4315C169.248 56.0639 177.219 72.486 179.423 90.0257C180.111 95.5054 184.524 100 190.047 100Z" fill="#EDEDED"/>
<path d="M10.046 100.13C4.52313 100.13 -0.00581634 95.6414 0.545556 90.1461C1.37808 81.8488 3.24529 73.6878 6.10352 65.854C7.99651 60.6657 14.0265 58.5933 18.9999 60.9948C23.9733 63.3963 25.9928 69.3623 24.2301 74.5963C22.5277 79.651 21.3352 84.8635 20.6702 90.1555C19.9816 95.6353 15.5688 100.13 10.046 100.13Z" fill="#D6111E"/>
<path d="M76.4927 96H72.9536V83.1211L68.9575 84.3281V81.4688L76.1294 78.9141H76.4927V96ZM93.52 88.957C93.52 90.6523 93.2778 92.0352 92.7935 93.1055C92.3091 94.1758 91.6294 94.9648 90.7544 95.4727C89.8872 95.9805 88.8794 96.2344 87.731 96.2344C86.5825 96.2344 85.5669 95.9805 84.6841 95.4727C83.8091 94.9648 83.1255 94.1758 82.6333 93.1055C82.1489 92.0352 81.9067 90.6523 81.9067 88.957V85.957C81.9067 84.2539 82.1489 82.8711 82.6333 81.8086C83.1177 80.7461 83.7974 79.9648 84.6724 79.4648C85.5474 78.957 86.5591 78.7031 87.7075 78.7031C88.856 78.7031 89.8638 78.957 90.731 79.4648C91.606 79.9648 92.2896 80.7461 92.7817 81.8086C93.2739 82.8711 93.52 84.2539 93.52 85.957V88.957ZM89.9692 85.4648C89.9692 84.4883 89.8794 83.7188 89.6997 83.1562C89.52 82.5859 89.2622 82.1797 88.9263 81.9375C88.5903 81.6875 88.1841 81.5625 87.7075 81.5625C87.231 81.5625 86.8208 81.6875 86.4771 81.9375C86.1411 82.1797 85.8833 82.5859 85.7036 83.1562C85.5317 83.7188 85.4458 84.4883 85.4458 85.4648V89.4258C85.4458 90.4102 85.5356 91.1914 85.7153 91.7695C85.895 92.3477 86.1567 92.7617 86.5005 93.0117C86.8442 93.2617 87.2544 93.3867 87.731 93.3867C88.2075 93.3867 88.6099 93.2617 88.938 93.0117C89.2739 92.7617 89.5278 92.3477 89.6997 91.7695C89.8794 91.1914 89.9692 90.4102 89.9692 89.4258V85.4648ZM100.891 78.9375L105.122 91.1133L109.34 78.9375H112.446L106.364 96H103.856L97.7856 78.9375H100.891ZM99.1919 78.9375L99.7661 91.582V96H96.0747V78.9375H99.1919ZM114.157 78.9375V96H110.465V91.582L111.028 78.9375H114.157ZM119.536 88.6172L119.512 86.0508H123.157C124.086 86.0508 124.774 85.8789 125.219 85.5352C125.665 85.1836 125.887 84.6797 125.887 84.0234C125.887 83.2734 125.668 82.7344 125.231 82.4062C124.793 82.0781 124.102 81.9141 123.157 81.9141H120.813V96H117.122V78.9375H123.157C125.165 78.9375 126.735 79.3203 127.868 80.0859C129 80.8516 129.567 82.0312 129.567 83.625C129.567 84.3203 129.407 84.9727 129.086 85.582C128.774 86.1836 128.274 86.6719 127.586 87.0469C126.899 87.4219 126.004 87.6211 124.903 87.6445L123.872 88.6172H119.536ZM118.528 96L119.958 93.0352H123.719C124.602 93.0352 125.247 92.8359 125.653 92.4375C126.059 92.0312 126.262 91.5273 126.262 90.9258C126.262 90.4492 126.18 90.0391 126.016 89.6953C125.852 89.3516 125.594 89.0859 125.243 88.8984C124.899 88.7109 124.442 88.6172 123.872 88.6172H120.45L120.473 86.0508H124.704L125.559 87.0703C126.614 87.0469 127.461 87.2227 128.102 87.5977C128.743 87.9648 129.208 88.4492 129.497 89.0508C129.786 89.6523 129.93 90.2891 129.93 90.9609C129.93 92.625 129.395 93.8828 128.325 94.7344C127.254 95.5781 125.719 96 123.719 96H118.528Z" fill="#171422"/>
</svg>
