<svg width="200" height="105" viewBox="0 0 200 105" fill="none" xmlns="http://www.w3.org/2000/svg">
<path d="M190.046 100C195.569 100 200.098 95.5116 199.547 90.0163C197.254 67.1613 187.142 45.6749 170.757 29.2893C152.003 10.5357 126.568 2.00233e-06 100.046 0C73.5246 -2.00233e-06 48.0892 10.5357 29.3356 29.2893C12.95 45.6749 2.83801 67.1613 0.545529 90.0163C-0.00567627 95.5116 4.52337 100 10.0462 100C15.5691 100 19.9817 95.5054 20.6701 90.0257C22.8738 72.486 30.8452 56.0639 43.4777 43.4314C58.4806 28.4285 78.8289 20 100.046 20C121.264 20 141.612 28.4286 156.615 43.4315C169.247 56.0639 177.219 72.486 179.422 90.0257C180.111 95.5054 184.523 100 190.046 100Z" fill="#D9D9D9"/>
<path d="M10.046 100.56C4.52313 100.56 -0.0058158 96.0722 0.545556 90.5769C1.71967 78.8751 4.95168 67.4452 10.1183 56.8223C15.285 46.1993 22.281 36.6001 30.7613 28.4518C34.7438 24.6253 41.0706 25.4171 44.4803 29.7616C47.8901 34.1062 47.0791 40.3523 43.1935 44.2771C37.0479 50.485 31.9442 57.674 28.1039 65.5699C24.2635 73.4658 21.7593 81.9191 20.6702 90.5863C19.9816 96.066 15.5688 100.56 10.046 100.56Z" fill="#D6111E"/>
<path d="M79.8911 96H68.1372V93.5859L73.645 87.7266C74.1919 87.1328 74.6216 86.6133 74.9341 86.168C75.2544 85.7148 75.481 85.3047 75.6138 84.9375C75.7466 84.5703 75.813 84.2266 75.813 83.9062C75.813 83.1641 75.6294 82.5859 75.2622 82.1719C74.9028 81.75 74.3833 81.5391 73.7036 81.5391C73.1958 81.5391 72.7661 81.6641 72.4146 81.9141C72.063 82.1562 71.7935 82.4883 71.606 82.9102C71.4263 83.3242 71.3364 83.8008 71.3364 84.3398H67.7974C67.7974 83.3086 68.0396 82.3672 68.5239 81.5156C69.0083 80.6562 69.6958 79.9727 70.5864 79.4648C71.4849 78.9492 72.5474 78.6914 73.7739 78.6914C75.5942 78.6914 76.981 79.125 77.9341 79.9922C78.8872 80.8594 79.3638 82.0508 79.3638 83.5664C79.3638 84.3398 79.2075 85.0781 78.895 85.7812C78.5825 86.4844 78.1372 87.1914 77.5591 87.9023C76.9888 88.6133 76.3169 89.3711 75.5435 90.1758L72.7075 93.1523H79.8911V96ZM93.52 88.957C93.52 90.6523 93.2778 92.0352 92.7935 93.1055C92.3091 94.1758 91.6294 94.9648 90.7544 95.4727C89.8872 95.9805 88.8794 96.2344 87.731 96.2344C86.5825 96.2344 85.5669 95.9805 84.6841 95.4727C83.8091 94.9648 83.1255 94.1758 82.6333 93.1055C82.1489 92.0352 81.9067 90.6523 81.9067 88.957V85.957C81.9067 84.2539 82.1489 82.8711 82.6333 81.8086C83.1177 80.7461 83.7974 79.9648 84.6724 79.4648C85.5474 78.957 86.5591 78.7031 87.7075 78.7031C88.856 78.7031 89.8638 78.957 90.731 79.4648C91.606 79.9648 92.2896 80.7461 92.7817 81.8086C93.2739 82.8711 93.52 84.2539 93.52 85.957V88.957ZM89.9692 85.4648C89.9692 84.4883 89.8794 83.7188 89.6997 83.1562C89.52 82.5859 89.2622 82.1797 88.9263 81.9375C88.5903 81.6875 88.1841 81.5625 87.7075 81.5625C87.231 81.5625 86.8208 81.6875 86.4771 81.9375C86.1411 82.1797 85.8833 82.5859 85.7036 83.1562C85.5317 83.7188 85.4458 84.4883 85.4458 85.4648V89.4258C85.4458 90.4102 85.5356 91.1914 85.7153 91.7695C85.895 92.3477 86.1567 92.7617 86.5005 93.0117C86.8442 93.2617 87.2544 93.3867 87.731 93.3867C88.2075 93.3867 88.6099 93.2617 88.938 93.0117C89.2739 92.7617 89.5278 92.3477 89.6997 91.7695C89.8794 91.1914 89.9692 90.4102 89.9692 89.4258V85.4648ZM100.891 78.9375L105.122 91.1133L109.34 78.9375H112.446L106.364 96H103.856L97.7856 78.9375H100.891ZM99.1919 78.9375L99.7661 91.582V96H96.0747V78.9375H99.1919ZM114.157 78.9375V96H110.465V91.582L111.028 78.9375H114.157ZM119.536 88.6172L119.512 86.0508H123.157C124.086 86.0508 124.774 85.8789 125.219 85.5352C125.665 85.1836 125.887 84.6797 125.887 84.0234C125.887 83.2734 125.668 82.7344 125.231 82.4062C124.793 82.0781 124.102 81.9141 123.157 81.9141H120.813V96H117.122V78.9375H123.157C125.165 78.9375 126.735 79.3203 127.868 80.0859C129 80.8516 129.567 82.0312 129.567 83.625C129.567 84.3203 129.407 84.9727 129.086 85.582C128.774 86.1836 128.274 86.6719 127.586 87.0469C126.899 87.4219 126.004 87.6211 124.903 87.6445L123.872 88.6172H119.536ZM118.528 96L119.958 93.0352H123.719C124.602 93.0352 125.247 92.8359 125.653 92.4375C126.059 92.0312 126.262 91.5273 126.262 90.9258C126.262 90.4492 126.18 90.0391 126.016 89.6953C125.852 89.3516 125.594 89.0859 125.243 88.8984C124.899 88.7109 124.442 88.6172 123.872 88.6172H120.45L120.473 86.0508H124.704L125.559 87.0703C126.614 87.0469 127.461 87.2227 128.102 87.5977C128.743 87.9648 129.208 88.4492 129.497 89.0508C129.786 89.6523 129.93 90.2891 129.93 90.9609C129.93 92.625 129.395 93.8828 128.325 94.7344C127.254 95.5781 125.719 96 123.719 96H118.528Z" fill="#171422"/>
</svg>
