<svg width="200" height="101" viewBox="0 0 200 101" fill="none" xmlns="http://www.w3.org/2000/svg">
<path d="M189.546 100.008C195.069 100.008 199.598 95.5194 199.047 90.0241C196.754 67.1691 186.642 45.6827 170.257 29.2971C151.503 10.5435 126.068 0.0078145 99.5462 0.0078125C73.0246 0.0078105 47.5892 10.5435 28.8356 29.2971C12.45 45.6827 2.33801 67.1691 0.0455289 90.0241C-0.505676 95.5194 4.02337 100.008 9.54622 100.008C15.0691 100.008 19.4817 95.5132 20.1701 90.0335C22.3738 72.4938 30.3452 56.0717 42.9777 43.4393C57.9806 28.4364 78.3289 20.0078 99.5462 20.0078C120.764 20.0078 141.112 28.4364 156.115 43.4393C168.747 56.0717 176.719 72.4938 178.922 90.0335C179.611 95.5132 184.023 100.008 189.546 100.008Z" fill="#EDEDED"/>
<path d="M9.54598 100.568C4.02313 100.568 -0.505816 96.08 0.0455561 90.5847C1.21967 78.8829 4.45168 67.453 9.61834 56.8301C14.785 46.2072 21.781 36.6079 30.2613 28.4596C34.2438 24.6332 40.5706 25.4249 43.9803 29.7694C47.3901 34.114 46.5791 40.3601 42.6935 44.2849C36.5479 50.4928 31.4442 57.6818 27.6039 65.5777C23.7635 73.4736 21.2593 81.9269 20.1702 90.5941C19.4816 96.0738 15.0688 100.568 9.54598 100.568Z" fill="#D6111E"/>
</svg>
