<svg width="200" height="105" viewBox="0 0 200 105" fill="none" xmlns="http://www.w3.org/2000/svg">
<path d="M190.046 100C195.569 100 200.098 95.5116 199.547 90.0163C197.254 67.1613 187.142 45.6749 170.757 29.2893C152.003 10.5357 126.568 2.00233e-06 100.046 0C73.5246 -2.00233e-06 48.0892 10.5357 29.3356 29.2893C12.95 45.6749 2.83801 67.1613 0.545529 90.0163C-0.00567627 95.5116 4.52337 100 10.0462 100C15.5691 100 19.9817 95.5054 20.6701 90.0257C22.8738 72.486 30.8452 56.0639 43.4777 43.4314C58.4806 28.4285 78.8289 20 100.046 20C121.264 20 141.612 28.4286 156.615 43.4315C169.247 56.0639 177.219 72.486 179.422 90.0257C180.111 95.5054 184.523 100 190.046 100Z" fill="#D9D9D9"/>
<path d="M10.0461 99.9925C4.52322 99.9925 -0.00577217 95.5039 0.545547 90.0087C2.5043 70.4849 10.1759 51.8867 22.7084 36.5979C35.2408 21.3091 51.972 10.1372 70.7319 4.38547C76.0122 2.76657 81.3022 6.32675 82.3859 11.7422C83.4696 17.1577 79.9283 22.3665 74.6902 24.117C60.4552 28.8739 47.7758 37.5656 38.1759 49.2768C28.5761 60.9881 22.5413 75.1265 20.6702 90.0182C19.9816 95.4979 15.5689 99.9925 10.0461 99.9925Z" fill="#D6111E"/>
<path d="M68.5825 87.6328L69.5786 78.9375H79.2349V81.8555H72.4849L72.0747 85.3945C72.2935 85.2773 72.6255 85.1445 73.0708 84.9961C73.5239 84.8477 74.0317 84.7734 74.5942 84.7734C75.7036 84.7734 76.645 85 77.4185 85.4531C78.1919 85.9062 78.7817 86.5625 79.188 87.4219C79.6021 88.2734 79.8091 89.3047 79.8091 90.5156C79.8091 91.5156 79.5981 92.4531 79.1763 93.3281C78.7622 94.1953 78.1255 94.8984 77.2661 95.4375C76.4067 95.9688 75.3208 96.2344 74.0083 96.2344C73.2583 96.2344 72.5356 96.1211 71.8403 95.8945C71.1528 95.668 70.5356 95.3398 69.9888 94.9102C69.4419 94.4727 69.0044 93.9453 68.6763 93.3281C68.356 92.7031 68.188 92 68.1724 91.2188H71.688C71.7505 91.8906 71.9849 92.4219 72.3911 92.8125C72.7974 93.1953 73.3286 93.3867 73.9849 93.3867C74.5396 93.3867 74.9849 93.25 75.3208 92.9766C75.6567 92.6953 75.8989 92.3203 76.0474 91.8516C76.1958 91.3828 76.27 90.8633 76.27 90.293C76.27 89.7148 76.1724 89.2109 75.9771 88.7812C75.7896 88.3438 75.5005 88.0039 75.1099 87.7617C74.7192 87.5195 74.2192 87.3984 73.6099 87.3984C73.0083 87.3984 72.5435 87.4961 72.2153 87.6914C71.8872 87.8867 71.6177 88.0977 71.4067 88.3242L68.5825 87.6328ZM93.52 88.957C93.52 90.6523 93.2778 92.0352 92.7935 93.1055C92.3091 94.1758 91.6294 94.9648 90.7544 95.4727C89.8872 95.9805 88.8794 96.2344 87.731 96.2344C86.5825 96.2344 85.5669 95.9805 84.6841 95.4727C83.8091 94.9648 83.1255 94.1758 82.6333 93.1055C82.1489 92.0352 81.9067 90.6523 81.9067 88.957V85.957C81.9067 84.2539 82.1489 82.8711 82.6333 81.8086C83.1177 80.7461 83.7974 79.9648 84.6724 79.4648C85.5474 78.957 86.5591 78.7031 87.7075 78.7031C88.856 78.7031 89.8638 78.957 90.731 79.4648C91.606 79.9648 92.2896 80.7461 92.7817 81.8086C93.2739 82.8711 93.52 84.2539 93.52 85.957V88.957ZM89.9692 85.4648C89.9692 84.4883 89.8794 83.7188 89.6997 83.1562C89.52 82.5859 89.2622 82.1797 88.9263 81.9375C88.5903 81.6875 88.1841 81.5625 87.7075 81.5625C87.231 81.5625 86.8208 81.6875 86.4771 81.9375C86.1411 82.1797 85.8833 82.5859 85.7036 83.1562C85.5317 83.7188 85.4458 84.4883 85.4458 85.4648V89.4258C85.4458 90.4102 85.5356 91.1914 85.7153 91.7695C85.895 92.3477 86.1567 92.7617 86.5005 93.0117C86.8442 93.2617 87.2544 93.3867 87.731 93.3867C88.2075 93.3867 88.6099 93.2617 88.938 93.0117C89.2739 92.7617 89.5278 92.3477 89.6997 91.7695C89.8794 91.1914 89.9692 90.4102 89.9692 89.4258V85.4648ZM100.891 78.9375L105.122 91.1133L109.34 78.9375H112.446L106.364 96H103.856L97.7856 78.9375H100.891ZM99.1919 78.9375L99.7661 91.582V96H96.0747V78.9375H99.1919ZM114.157 78.9375V96H110.465V91.582L111.028 78.9375H114.157ZM119.536 88.6172L119.512 86.0508H123.157C124.086 86.0508 124.774 85.8789 125.219 85.5352C125.665 85.1836 125.887 84.6797 125.887 84.0234C125.887 83.2734 125.668 82.7344 125.231 82.4062C124.793 82.0781 124.102 81.9141 123.157 81.9141H120.813V96H117.122V78.9375H123.157C125.165 78.9375 126.735 79.3203 127.868 80.0859C129 80.8516 129.567 82.0312 129.567 83.625C129.567 84.3203 129.407 84.9727 129.086 85.582C128.774 86.1836 128.274 86.6719 127.586 87.0469C126.899 87.4219 126.004 87.6211 124.903 87.6445L123.872 88.6172H119.536ZM118.528 96L119.958 93.0352H123.719C124.602 93.0352 125.247 92.8359 125.653 92.4375C126.059 92.0312 126.262 91.5273 126.262 90.9258C126.262 90.4492 126.18 90.0391 126.016 89.6953C125.852 89.3516 125.594 89.0859 125.243 88.8984C124.899 88.7109 124.442 88.6172 123.872 88.6172H120.45L120.473 86.0508H124.704L125.559 87.0703C126.614 87.0469 127.461 87.2227 128.102 87.5977C128.743 87.9648 129.208 88.4492 129.497 89.0508C129.786 89.6523 129.93 90.2891 129.93 90.9609C129.93 92.625 129.395 93.8828 128.325 94.7344C127.254 95.5781 125.719 96 123.719 96H118.528Z" fill="#171422"/>
</svg>
