<svg width="200" height="101" viewBox="0 0 200 101" fill="none" xmlns="http://www.w3.org/2000/svg">
<path d="M189.546 100.008C195.069 100.008 199.598 95.5194 199.047 90.0241C196.754 67.1691 186.642 45.6827 170.257 29.2971C151.503 10.5435 126.068 0.0078145 99.5462 0.0078125C73.0246 0.0078105 47.5892 10.5435 28.8356 29.2971C12.45 45.6827 2.33801 67.1691 0.0455289 90.0241C-0.505676 95.5194 4.02337 100.008 9.54622 100.008C15.0691 100.008 19.4817 95.5132 20.1701 90.0335C22.3738 72.4938 30.3452 56.0717 42.9777 43.4393C57.9806 28.4364 78.3289 20.0078 99.5462 20.0078C120.764 20.0078 141.112 28.4364 156.115 43.4393C168.747 56.0717 176.719 72.4938 178.922 90.0335C179.611 95.5132 184.023 100.008 189.546 100.008Z" fill="#EDEDED"/>
<path d="M9.54607 100C4.02322 100 -0.505772 95.5117 0.0455474 90.0165C2.0043 70.4927 9.67595 51.8945 22.2084 36.6057C34.7408 21.3169 51.472 10.145 70.2319 4.39329C75.5122 2.77438 80.8022 6.33456 81.8859 11.75C82.9696 17.1655 79.4283 22.3744 74.1902 24.1248C59.9552 28.8817 47.2758 37.5734 37.6759 49.2846C28.0761 60.9959 22.0413 75.1343 20.1702 90.026C19.4816 95.5058 15.0689 100 9.54607 100Z" fill="#D6111E"/>
</svg>
