<svg width="41" height="40" viewBox="0 0 41 40" fill="none" xmlns="http://www.w3.org/2000/svg">
<path d="M37.1173 30.5499C37.1173 31.1499 36.984 31.7666 36.7007 32.3666C36.4173 32.9666 36.0507 33.5333 35.5673 34.0666C34.7507 34.9666 33.8507 35.6166 32.834 36.0333C31.834 36.4499 30.7507 36.6666 29.584 36.6666C27.884 36.6666 26.0673 36.2666 24.1507 35.4499C22.234 34.6333 20.3173 33.5333 18.4173 32.1499C16.5007 30.7499 14.684 29.1999 12.9507 27.4833C11.234 25.7499 9.68398 23.9333 8.30065 22.0333C6.93398 20.1333 5.83398 18.2333 5.03398 16.3499C4.23398 14.4499 3.83398 12.6333 3.83398 10.8999C3.83398 9.76659 4.03398 8.68325 4.43398 7.68325C4.83398 6.66659 5.46732 5.73325 6.35065 4.89992C7.41732 3.84992 8.58398 3.33325 9.81732 3.33325C10.284 3.33325 10.7507 3.43325 11.1673 3.63325C11.6007 3.83325 11.984 4.13325 12.284 4.56659L16.1507 10.0166C16.4507 10.4333 16.6673 10.8166 16.8173 11.1833C16.9673 11.5333 17.0507 11.8833 17.0507 12.1999C17.0507 12.5999 16.934 12.9999 16.7007 13.3833C16.484 13.7666 16.1673 14.1666 15.7673 14.5666L14.5007 15.8833C14.3173 16.0666 14.234 16.2833 14.234 16.5499C14.234 16.6833 14.2507 16.7999 14.284 16.9333C14.334 17.0666 14.384 17.1666 14.4173 17.2666C14.7173 17.8166 15.234 18.5333 15.9673 19.3999C16.7173 20.2666 17.5173 21.1499 18.384 22.0333C19.284 22.9166 20.1507 23.7333 21.034 24.4833C21.9007 25.2166 22.6173 25.7166 23.184 26.0166C23.2673 26.0499 23.3673 26.0999 23.484 26.1499C23.6173 26.1999 23.7507 26.2166 23.9007 26.2166C24.184 26.2166 24.4007 26.1166 24.584 25.9333L25.8507 24.6833C26.2673 24.2666 26.6673 23.9499 27.0507 23.7499C27.434 23.5166 27.8173 23.3999 28.234 23.3999C28.5507 23.3999 28.884 23.4666 29.2507 23.6166C29.6173 23.7666 30.0007 23.9833 30.4173 24.2666L35.934 28.1833C36.3673 28.4833 36.6673 28.8333 36.8507 29.2499C37.0173 29.6666 37.1173 30.0833 37.1173 30.5499Z" fill="#D6111E" fill-opacity="0.08" stroke="#D6111E" stroke-width="1.5" stroke-miterlimit="10"/>
</svg>
