<svg width="32" height="32" viewBox="0 0 32 32" fill="none" xmlns="http://www.w3.org/2000/svg">
<path d="M9.97339 24.4667L14.1067 27.6667C14.6401 28.2 15.8401 28.4667 16.6401 28.4667H21.7067C23.3067 28.4667 25.0401 27.2667 25.4401 25.6667L28.6401 15.9333C29.3067 14.0667 28.1067 12.4667 26.1067 12.4667H20.7734C19.9734 12.4667 19.3067 11.8 19.4401 10.8667L20.1067 6.6C20.3734 5.4 19.5734 4.06666 18.3734 3.66666C17.3067 3.26666 15.9734 3.8 15.4401 4.6L9.97339 12.7333" stroke="#D6111E" stroke-width="1.5" stroke-miterlimit="10"/>
<path d="M3.17334 24.4666V11.4C3.17334 9.5333 3.97334 8.86664 5.84001 8.86664H7.17334C9.04001 8.86664 9.84001 9.5333 9.84001 11.4V24.4666C9.84001 26.3333 9.04001 27 7.17334 27H5.84001C3.97334 27 3.17334 26.3333 3.17334 24.4666Z" stroke="#D6111E" stroke-width="1.5" stroke-linecap="round" stroke-linejoin="round"/>
</svg>
