<svg width="268" height="64" viewBox="0 0 268 64" fill="none" xmlns="http://www.w3.org/2000/svg">
<path d="M199.441 23.5453C199.441 22.5396 199.407 21.5323 199.449 20.5266C199.519 18.8577 200.475 18.2874 202.003 18.9754C203.531 19.665 205.084 20.3066 206.484 21.2441C207.938 22.2157 208.31 23.1052 207.916 24.7943C207.668 25.8605 207.741 26.9514 207.606 28.0253C207.158 31.5802 207.603 35.1257 207.78 38.6698C207.839 39.8459 208.341 40.9632 208.394 42.1657C208.477 44.1291 207.479 44.9427 205.584 44.3569C204.919 44.1508 204.267 43.9045 203.611 43.6705C201.738 43.001 200.433 41.7535 199.601 39.9312C198.82 38.2204 197.915 36.5654 197.063 34.8871C196.957 34.681 196.847 34.4749 196.719 34.2812C196.593 34.0906 196.46 33.8302 196.199 33.8845C195.891 33.948 195.886 34.2642 195.863 34.5167C195.803 35.1862 195.809 35.8556 195.936 36.5204C196.328 38.5551 196.452 40.613 196.458 42.6802C196.461 43.9556 195.735 44.5072 194.489 44.1756C193.86 44.0083 193.283 43.7247 192.736 43.3745C191.541 42.609 190.345 41.8434 189.142 41.0934C188.053 40.4147 187.438 39.4911 187.466 38.163C187.526 35.3024 187.413 32.434 187.861 29.5935C188.107 28.0331 187.664 26.5144 187.601 24.9725C187.542 23.5655 187.52 22.1506 187.094 20.7637C186.762 19.6805 187.613 18.5338 188.797 18.6004C191.282 18.7399 193.692 19.2792 195.166 21.5897C196.192 23.1982 197.08 24.8935 198.059 26.5299C198.296 26.9266 198.494 27.6193 199.029 27.4783C199.568 27.3373 199.382 26.6384 199.403 26.175C199.441 25.2995 199.413 24.4209 199.413 23.5438H199.441V23.5453Z" fill="white"/>
<path d="M109.06 44.5679C107.036 44.7151 105.389 43.821 103.857 42.6774C102.781 41.8746 101.859 40.8875 100.866 39.9872C99.7904 39.0125 99.4464 37.813 99.561 36.4277C99.6122 35.8109 99.6834 35.1957 99.7392 34.5789C99.8446 33.4105 99.6029 32.3428 98.9613 31.3356C98.3353 30.3531 98.4251 29.8588 99.2186 28.9894C99.5037 28.6764 99.7191 28.337 99.8136 27.9217C100.001 27.0911 100.176 26.2574 100.387 25.433C100.607 24.5714 100.458 23.8059 99.9205 23.0961C99.6091 22.6855 99.3193 22.2562 99.0512 21.8146C98.4468 20.8182 98.608 20.1301 99.6463 19.5816C100.587 19.0841 101.62 18.7634 102.67 18.6704C105.109 18.455 107.566 18.2442 110.004 18.5139C112.443 18.7835 114.132 20.2975 115.293 22.3709C115.859 23.3813 115.27 24.2398 114.073 24.2072C112.865 24.1747 111.664 23.9562 110.447 23.9794C109.094 24.0058 108.845 24.2243 108.716 25.5802C108.674 26.0157 108.592 26.448 108.537 26.8834C108.422 27.7714 108.704 28.1541 109.606 28.2006C110.61 28.2533 111.62 28.1991 112.623 28.2642C114.159 28.3634 115.27 29.2513 115.66 30.6057C116.076 32.0499 115.423 33.0185 113.945 33.2633C112.541 33.4958 111.115 33.4772 109.713 33.6895C108.569 33.8615 108.33 34.1481 108.301 35.3212C108.289 35.8372 108.284 36.3548 108.321 36.8693C108.385 37.7449 108.693 38.0579 109.545 37.9928C111.061 37.8766 112.587 37.8285 114.086 37.5387C116.433 37.0863 118.394 39.0667 117.909 41.4376C117.717 42.3721 116.973 42.8354 116.159 43.1515C113.872 44.0395 111.47 44.337 109.06 44.5679Z" fill="white"/>
<path d="M182.49 32.9612C182.46 34.2613 182.064 35.6622 181.825 37.0817C181.08 41.4997 179.084 45.3164 176.132 48.6637C175.383 49.5129 174.773 50.4814 173.909 51.236C172.172 52.7531 170.711 52.874 168.799 51.5909C167.9 50.9881 166.958 50.4364 166.18 49.6725C165.174 48.6854 165.236 47.9617 166.392 47.1652C167.649 46.3005 168.9 45.4342 169.831 44.1945C170.584 43.1919 170.527 42.679 169.383 42.2435C167.68 41.5942 166.789 40.3189 166.163 38.7134C164.798 35.2066 164.072 31.5417 163.463 27.8505C163.243 26.5209 164.032 25.7523 165.365 25.9429C166.465 26.0994 167.567 26.2141 168.673 26.2807C169.343 26.321 169.853 26.5891 170.19 27.1888C170.328 27.4321 170.491 27.6955 170.711 27.8536C172.188 28.9213 172.493 30.4973 172.612 32.1538C172.665 32.8744 172.665 33.5981 172.712 34.3187C172.735 34.6766 172.8 35.0346 172.873 35.3864C172.915 35.5847 172.992 35.8172 173.251 35.8063C173.502 35.797 173.576 35.5661 173.621 35.3693C173.905 34.1405 174.337 32.9379 174.333 31.6548C174.326 30.1703 174.692 28.7384 174.954 27.2942C175.132 26.3132 175.616 26.0529 176.58 26.2869C177.895 26.6061 179.119 27.1082 180.203 27.9605C181.786 29.2049 182.502 30.8242 182.49 32.9612Z" fill="white"/>
<path d="M139.398 30.1283C139.218 31.9754 139.03 33.8071 139.315 35.6775C139.639 37.8036 140.154 39.8693 140.839 41.8993C140.93 42.1674 141.036 42.4339 141.099 42.7098C141.369 43.8487 140.927 44.4392 139.768 44.5383C137.732 44.7135 135.805 44.4035 134.061 43.2738C133.552 42.9453 133.05 42.9562 132.528 43.2475C130.132 44.5848 127.842 44.2315 125.705 42.6943C123.315 40.9757 121.481 38.8264 120.906 35.8263C120.205 32.1691 121.589 29.3132 124.38 27.0414C125.201 26.3719 126.156 25.8962 127.109 25.4298C128.034 24.9757 128.883 25.0486 129.728 25.6483C130.699 26.3379 130.766 26.3255 131.64 25.5413C132.189 25.0486 132.824 24.9122 133.512 25.0517C135.458 25.4484 137.192 26.3735 138.919 27.3048C139.368 27.5481 139.5 28.0099 139.48 28.5058C139.458 29.0466 139.425 29.5874 139.398 30.1283ZM131.518 34.5199C131.508 34.5199 131.497 34.5199 131.488 34.5199C131.465 34.0318 131.479 33.5359 131.406 33.0555C131.305 32.3861 130.853 32.2141 130.289 32.5937C130.028 32.7689 129.811 32.9982 129.681 33.2833C129.199 34.334 128.962 35.4373 129.102 36.5918C129.204 37.441 129.829 37.723 130.546 37.2628C131.143 36.88 131.515 36.3439 131.516 35.6031C131.518 35.2405 131.518 34.881 131.518 34.5199Z" fill="white"/>
<path d="M13.7267 18.6145C15.845 18.3619 17.8859 18.8407 19.7377 20.0975C20.5683 20.6631 21.2192 21.3791 21.6252 22.3026C22.1195 23.4277 21.715 24.1281 20.48 24.204C19.0915 24.2877 17.6953 24.2149 16.3068 24.3993C14.9106 24.5853 14.5743 25.0052 14.9524 26.3456C15.5506 28.4702 15.1585 28.512 17.717 28.5012C19.7129 28.4919 21.2393 29.5859 21.7879 31.3215C22.2853 32.896 21.5151 34.0535 19.8865 34.1729C18.9598 34.241 18.0347 34.317 17.108 34.3619C15.8264 34.4254 15.3817 34.8237 15.3677 36.1145C15.3429 38.3367 15.2871 40.5496 14.8563 42.7408C14.5247 44.4253 13.9529 44.777 12.3971 44.0936C11.2364 43.5838 10.0649 43.1483 8.81121 42.9035C7.10816 42.5703 6.21557 41.3663 5.89945 39.7608C5.6732 38.6172 5.73364 37.4441 6.12569 36.3191C6.3132 35.7798 6.40773 35.222 6.50691 34.6625C6.63088 33.9575 6.47746 33.3422 6.04201 32.772C5.79407 32.4466 5.55698 32.0948 5.40201 31.7198C5.09209 30.976 5.29974 30.336 6.07456 29.8819C6.89276 29.4 7.11901 28.7259 6.97644 27.8534C6.9718 27.8286 6.9656 27.8023 6.9656 27.7775C7.02448 25.7707 6.26981 24.1436 4.94642 22.6188C3.52695 20.9854 4.07088 19.6481 6.24812 19.332C8.69189 18.9756 11.1279 18.4254 13.7267 18.6145Z" fill="white"/>
<path d="M216.929 12.4763C217.493 12.1276 218.04 11.7449 218.624 11.435C221.773 9.76135 225.046 8.38373 228.435 7.25869C230.42 6.59854 232.416 5.96939 234.457 5.54324C239.543 4.48174 244.646 3.67593 249.88 4.49569C252.589 4.92029 255.188 5.55253 257.528 7.02934C262.106 9.91941 263.743 14.8209 262.477 20.0974C260.991 26.2898 257.378 31.1882 253.204 35.772C252.682 36.3454 252.044 36.5995 251.277 36.5918C250.218 36.5809 249.16 36.6119 248.101 36.5825C247.509 36.567 246.727 36.801 246.445 36.0959C246.185 35.4497 246.837 35.0344 247.237 34.6222C248.838 32.9703 250.362 31.2533 251.687 29.3705C253.22 27.1932 254.63 24.954 255.555 22.4265C256.485 19.8867 256.857 17.2864 256.141 14.6892C255.157 11.1235 252.447 9.20813 249.103 8.09859C245.097 6.77055 240.982 6.82944 236.843 7.26333C232.224 7.74837 227.789 8.96638 223.4 10.437C221.637 11.0274 219.931 11.7588 218.172 12.3508C217.791 12.4794 217.398 12.577 217.011 12.6886C216.985 12.6189 216.957 12.5476 216.929 12.4763Z" fill="white"/>
<path d="M66.1276 39.4679C66.1276 40.6936 66.1524 41.6745 66.1214 42.6539C66.0858 43.8053 65.5682 44.4019 64.4494 44.6545C63.7087 44.8219 62.9602 44.8126 62.2195 44.6684C61.0696 44.4453 60.005 43.9727 58.9807 43.4287C58.0246 42.9204 57.6 42.1084 57.7209 40.9912C57.9409 38.9658 58.1145 36.9342 58.3004 34.9042C58.3283 34.5973 58.3578 34.2828 58.3206 33.979C58.2508 33.4181 57.9301 33.0167 57.3768 32.8726C56.8112 32.7269 56.4502 33.0632 56.1635 33.4987C55.8737 33.9387 55.7358 34.4331 55.6521 34.9476C55.4429 36.2291 55.4135 37.5153 55.556 38.8046C55.6986 40.0908 55.6753 41.3832 55.618 42.671C55.5607 43.9556 54.9672 44.3554 53.7197 44.0315C52.3932 43.686 51.1101 43.2149 49.8596 42.6555C47.5521 41.6219 46.751 40.0598 47.3445 37.6005C47.6064 36.5173 47.7675 35.4311 47.89 34.3262C48.0837 32.5735 48.1441 30.8333 47.8683 29.0837C47.735 28.2423 47.7443 27.3838 47.8125 26.5346C47.8931 25.5397 48.4246 25.126 49.3854 25.3832C50.7537 25.7489 52.1344 26.127 53.3462 26.8988C54.0095 27.3218 54.6851 27.3977 55.3143 26.9964C57.4605 25.6281 59.3573 26.1115 61.1921 27.6286C61.8863 28.202 62.6658 28.6731 63.3306 29.2883C64.5811 30.4474 65.3792 31.8158 65.6178 33.5544C65.8983 35.6031 66.2718 37.6346 66.1276 39.4679Z" fill="white"/>
<path d="M224.566 44.5864C219.583 44.5492 214.626 40.7387 213.391 35.9518C212.965 34.2984 213.315 32.7131 213.913 31.1836C214.707 29.1551 215.792 27.3312 217.818 26.2651C218.939 25.6762 220.14 25.3229 221.39 25.4081C225.007 25.653 228.088 26.9887 230.288 30.0105C231.736 31.9972 231.977 35.5211 228.567 37.0025C226.701 37.8114 224.814 38.315 222.794 37.5821C222.625 37.5216 222.426 37.4627 222.292 37.6348C222.137 37.8347 222.266 38.0268 222.371 38.205C222.861 39.0356 224.257 39.5563 225.396 39.2913C226.331 39.0744 227.277 38.9597 228.232 38.9256C229.126 38.8946 229.977 39.0496 230.662 39.719C232.136 41.1617 231.655 43.2011 229.67 43.7636C228.729 44.0301 227.762 44.213 226.797 44.3726C226.061 44.4934 225.309 44.5182 224.566 44.5864ZM224.384 31.9755C224.364 31.6036 224.347 31.1077 223.806 30.9264C223.301 30.7575 222.98 31.0829 222.725 31.4641C222.405 31.9383 222.171 32.4543 222.092 33.0246C222.018 33.5623 222.278 33.7917 222.81 33.7374C223.608 33.6553 224.327 32.8944 224.384 31.9755Z" fill="white"/>
<path d="M37.3741 44.518C32.141 44.5366 27.1775 40.5586 26.0525 35.6091C25.7487 34.2749 26.0323 33.0259 26.443 31.811C27.1791 29.6399 28.1119 27.5727 30.2706 26.3795C31.4762 25.7131 32.7717 25.3412 34.1307 25.4326C36.9883 25.6248 39.5669 26.5763 41.7162 28.5381C42.8784 29.5981 43.613 30.9106 43.9818 32.4262C44.3289 33.8534 43.5773 35.5766 42.1299 36.4645C40.1092 37.7058 37.9583 38.3861 35.5719 37.5926C35.3782 37.5276 35.1519 37.4315 34.9954 37.6252C34.8172 37.8452 34.9598 38.0653 35.0837 38.2636C35.5765 39.0478 36.9216 39.5684 37.9754 39.3422C38.7843 39.1686 39.5947 39.0183 40.4191 38.9439C41.0158 38.8912 41.6077 38.9191 42.1857 39.0787C43.3108 39.3871 44.1383 40.4548 44.1398 41.5861C44.1414 42.6212 43.4843 43.4766 42.2849 43.7679C40.6299 44.1693 38.9656 44.5583 37.3741 44.518ZM37.0502 31.8574C37.0254 31.4824 36.965 31.0268 36.4474 30.8827C35.9763 30.751 35.6695 31.0563 35.4231 31.4065C35.093 31.8745 34.8405 32.3828 34.7723 32.9577C34.6948 33.6054 35.0016 33.8642 35.6463 33.7263C36.4815 33.5465 37.0657 32.8012 37.0502 31.8574Z" fill="white"/>
<path d="M154.13 25.8267C156.008 25.7941 157.751 26.307 159.388 27.1888C160.541 27.8117 161.285 28.7679 161.457 30.1006C161.66 31.6703 160.781 32.7504 159.207 32.7644C158.015 32.7752 156.814 32.704 156.065 31.5107C155.839 31.1497 155.442 30.9653 154.998 30.9885C154.587 31.0102 154.231 31.176 154.077 31.582C153.91 32.0237 154.166 32.3274 154.508 32.5552C155.446 33.1781 156.554 33.3966 157.575 33.8197C158.726 34.2954 159.701 34.968 160.449 35.9644C161.886 37.8735 161.829 40.3282 160.181 42.0576C157.817 44.5401 154.992 45.6419 151.572 44.5742C149.54 43.9404 147.583 43.1392 145.988 41.6717C144.719 40.5017 144.589 39.0079 145.574 37.6442C146.25 36.7098 147.084 36.5362 148.052 37.187C148.672 37.6039 149.241 38.0936 149.836 38.5461C150.375 38.9567 150.989 39.1117 151.658 39.0296C152.026 38.9846 152.411 38.9071 152.495 38.4748C152.571 38.0796 152.272 37.8549 151.97 37.7C151.258 37.3374 150.543 36.9763 149.808 36.6617C147.973 35.8761 146.752 34.5372 146.019 32.69C145.34 30.9777 145.591 29.6899 146.95 28.4301C148.748 26.7673 151.361 25.8189 154.13 25.8267Z" fill="white"/>
<path d="M234.493 35.2717C234.485 34.3698 234.488 33.4617 234.669 32.5753C234.846 31.7091 234.657 30.9435 234.17 30.2261C233.969 29.927 233.769 29.6232 233.603 29.304C233.177 28.4889 233.302 27.8536 234.107 27.3918C234.878 26.9486 235.165 26.3365 235.162 25.4873C235.157 24.3994 235.36 23.3302 235.56 22.2671C235.742 21.3032 236.408 20.7516 237.31 20.9096C239.115 21.2258 240.9 21.6349 242.507 22.5832C243.268 23.0326 243.628 23.6804 243.581 24.573C243.515 25.8421 243.611 25.9708 244.805 26.4604C246.366 27.1004 247.231 28.3076 247.206 29.8092C247.189 30.8521 246.815 31.3557 245.808 31.6827C245.188 31.8842 244.545 31.9276 243.9 31.9648C243.18 32.0066 242.758 32.3847 242.631 33.0882C242.363 34.5759 242.324 36.0558 242.723 37.5357C242.974 38.467 243.453 39.2263 244.199 39.8354C244.818 40.339 245.486 40.793 245.999 41.4144C246.547 42.0792 246.529 42.6929 245.864 43.2384C244.753 44.148 243.499 44.6067 242.05 44.179C240.485 43.7187 238.994 43.071 237.59 42.2435C235.591 41.0673 234.802 39.1473 234.505 36.9701C234.427 36.4138 234.493 35.8388 234.493 35.2717Z" fill="white"/>
<path d="M203.83 59.0799C200.622 59.3185 197.507 58.9543 194.515 57.8433C192.319 57.0281 190.283 55.9186 188.806 54.0141C188.561 53.698 188.13 53.2873 188.408 52.9371C188.736 52.5218 189.158 52.982 189.479 53.1789C192.587 55.0772 196.009 55.8008 199.595 55.8907C204.509 56.0131 209.292 55.2228 214.011 53.8777C220.425 52.0476 226.492 49.4272 232.241 46.0645C233.394 45.3904 234.558 45.0076 235.904 45.0851C237.139 45.1548 238.381 45.0928 239.619 45.1207C240.065 45.1316 240.795 45.0851 240.795 45.6275C240.795 46.3341 240.418 46.4271 240.045 46.689C236.868 48.9235 233.425 50.6963 229.955 52.4071C225.382 54.6603 220.612 56.4253 215.663 57.6279C211.776 58.57 207.853 59.4068 203.83 59.0799Z" fill="white"/>
<path d="M69.5105 38.2343C69.6469 34.7306 69.7491 31.2253 70.2357 27.7479C70.4682 26.0882 71.2136 25.6404 72.7399 26.3021C74.1842 26.9281 75.5897 27.6332 76.9131 28.4933C78.1017 29.265 78.627 30.5233 78.1017 31.8451C77.0324 34.5307 77.2416 37.2503 77.6693 39.9962C77.8119 40.9136 78.0242 41.8217 78.0165 42.7546C78.0056 44.0811 77.096 44.7939 75.8532 44.3461C74.2059 43.751 72.5865 43.0738 70.9811 42.3734C70.2559 42.0573 69.8313 41.4157 69.7259 40.6238C69.6221 39.8289 69.5802 39.0293 69.5105 38.2343Z" fill="white"/>
<path d="M7.27091 45.9253H5.59265V55.9267H7.27091V45.9253Z" fill="white"/>
<path d="M9.4032 48.7858H11.0474V55.925H9.4032V48.7858ZM13.6337 55.9265V51.5999C13.6337 51.1691 13.519 50.8375 13.2897 50.6066C13.0603 50.3757 12.7349 50.2595 12.3134 50.2595C11.9105 50.2595 11.5975 50.3695 11.3774 50.5895C11.1574 50.8096 11.0474 51.1164 11.0474 51.5116L10.9032 50.0332C11.114 49.6024 11.3821 49.2693 11.7075 49.0353C12.0329 48.8013 12.4234 48.6851 12.8775 48.6851C13.643 48.6851 14.235 48.9392 14.6518 49.4459C15.0687 49.9526 15.2779 50.6686 15.2779 51.5953V55.9281H13.6337V55.9265Z" fill="white"/>
<path d="M16.7222 48.786H20.0787V50.224H16.7222V48.786ZM19.1985 55.9608C18.5879 55.9608 18.1463 55.7981 17.8704 55.4727C17.5946 55.1472 17.4582 54.6793 17.4582 54.0687V46.7095H19.1024V53.8424C19.1024 54.0113 19.1365 54.1446 19.2047 54.2407C19.2729 54.3368 19.3751 54.3848 19.5069 54.3848H20.0771V55.9608H19.1985Z" fill="white"/>
<path d="M24.8593 56.029C23.8458 56.029 23.0586 55.7516 22.4992 55.1968C21.9398 54.642 21.6593 53.8533 21.6593 52.8305V52.0262C21.6593 50.9632 21.9274 50.1388 22.4636 49.5561C22.9997 48.9735 23.7575 48.6821 24.7338 48.6821C25.6558 48.6821 26.3686 49.0199 26.8723 49.6971C27.3775 50.3728 27.6285 51.3258 27.6285 52.5547V53.0227H22.7797V51.8186H26.1021L26.0944 51.7427C26.0479 51.2468 25.9084 50.8609 25.6744 50.5835C25.4404 50.3062 25.1258 50.1667 24.7322 50.1667C24.241 50.1667 23.8598 50.3216 23.5871 50.6316C23.3143 50.9415 23.1779 51.38 23.1779 51.9488V52.8568C23.1779 53.3977 23.3252 53.8145 23.618 54.1059C23.9109 54.3972 24.3247 54.5428 24.8562 54.5428C25.1274 54.5428 25.3939 54.4917 25.6574 54.3879C25.9208 54.2841 26.1579 54.1415 26.3686 53.9586L27.441 54.9628C27.0784 55.3022 26.6724 55.5641 26.2199 55.75C25.7736 55.936 25.318 56.029 24.8593 56.029Z" fill="white"/>
<path d="M29.4198 48.7858H31.1321V55.925H29.4198V48.7858ZM33.3962 50.6237C33.2908 50.5043 33.156 50.4145 32.9933 50.3525C32.8306 50.2905 32.643 50.2595 32.4323 50.2595C32.0201 50.2595 31.6993 50.3819 31.4731 50.6283C31.2468 50.8747 31.1321 51.2141 31.1321 51.6495L30.988 50.0332C31.1941 49.6117 31.4638 49.2817 31.7969 49.043C32.1286 48.8044 32.4958 48.6851 32.8941 48.6851C33.2056 48.6851 33.4876 48.7315 33.7402 48.8261C33.9928 48.9206 34.2128 49.0585 34.4003 49.2414L33.3962 50.6237Z" fill="white"/>
<path d="M35.4324 48.7858H37.0765V55.925H35.4324V48.7858ZM39.6613 55.9265V51.5999C39.6613 51.1691 39.5467 50.8375 39.3173 50.6066C39.088 50.3757 38.7625 50.2595 38.341 50.2595C37.9381 50.2595 37.6251 50.3695 37.4051 50.5895C37.185 50.8096 37.075 51.1164 37.075 51.5116L36.9309 50.0332C37.1416 49.6024 37.4097 49.2693 37.7351 49.0353C38.0606 48.8013 38.4511 48.6851 38.9051 48.6851C39.6706 48.6851 40.2626 48.9392 40.6794 49.4459C41.0963 49.9526 41.3055 50.6686 41.3055 51.5953V55.9281H39.6613V55.9265Z" fill="white"/>
<path d="M46.2923 56.029C45.2788 56.029 44.4916 55.7516 43.9322 55.1968C43.3728 54.642 43.0923 53.8533 43.0923 52.8305V52.0262C43.0923 50.9632 43.3604 50.1388 43.8965 49.5561C44.4327 48.9735 45.1905 48.6821 46.1668 48.6821C47.0888 48.6821 47.8016 49.0199 48.3053 49.6971C48.8104 50.3728 49.0615 51.3258 49.0615 52.5547V53.0227H44.2127V51.8186H47.5351L47.5273 51.7427C47.4809 51.2468 47.3414 50.8609 47.1074 50.5835C46.8734 50.3062 46.5588 50.1667 46.1652 50.1667C45.674 50.1667 45.2928 50.3216 45.02 50.6316C44.7473 50.9415 44.6109 51.38 44.6109 51.9488V52.8568C44.6109 53.3977 44.7581 53.8145 45.051 54.1059C45.3439 54.3972 45.7577 54.5428 46.2892 54.5428C46.5604 54.5428 46.8269 54.4917 47.0904 54.3879C47.3538 54.2841 47.5909 54.1415 47.8016 53.9586L48.874 54.9628C48.5114 55.3022 48.1054 55.5641 47.6529 55.75C47.2066 55.936 46.751 56.029 46.2923 56.029Z" fill="white"/>
<path d="M50.3027 48.786H53.6593V50.224H50.3027V48.786ZM52.7791 55.9608C52.1685 55.9608 51.7269 55.7981 51.451 55.4727C51.1752 55.1472 51.0388 54.6793 51.0388 54.0687V46.7095H52.683V53.8424C52.683 54.0113 52.7171 54.1446 52.7853 54.2407C52.8534 54.3368 52.9557 54.3848 53.0874 54.3848H53.6577V55.9608H52.7791Z" fill="white"/>
<path d="M62.4425 56.0288C61.9606 56.0288 61.4988 55.9807 61.0572 55.8877C60.614 55.7932 60.2002 55.6553 59.8159 55.4709C59.4316 55.288 59.0752 55.0602 58.7498 54.7906L59.6238 53.4765C60.0096 53.8019 60.442 54.0483 60.9208 54.2157C61.3996 54.383 61.9079 54.4667 62.4441 54.4667C63.1135 54.4667 63.6327 54.3474 64.0015 54.1088C64.3703 53.8701 64.5547 53.5338 64.5547 53.0984V53.0906C64.5547 52.7559 64.4617 52.4987 64.2758 52.3205C64.0898 52.1423 63.8465 52.009 63.5428 51.9253C63.2406 51.8401 62.9105 51.7688 62.5526 51.7084C62.1714 51.6495 61.7855 51.5751 61.3934 51.4852C61.0014 51.3953 60.6419 51.2559 60.3133 51.0653C59.9848 50.8747 59.7214 50.6019 59.523 50.2471C59.3231 49.8922 59.2239 49.418 59.2239 48.826V48.8199C59.2239 47.8668 59.5385 47.1276 60.1692 46.6054C60.7999 46.0832 61.691 45.8213 62.8408 45.8213C63.377 45.8213 63.9131 45.9096 64.4509 46.0863C64.987 46.2629 65.4984 46.5233 65.985 46.8673L65.1869 48.2217C64.8011 47.9412 64.409 47.732 64.0108 47.5925C63.611 47.4531 63.222 47.3833 62.8408 47.3833C62.2085 47.3833 61.7189 47.4996 61.3717 47.7305C61.0262 47.9613 60.8526 48.2883 60.8526 48.7098V48.716C60.8526 49.0647 60.9549 49.3297 61.1594 49.511C61.364 49.6923 61.629 49.8271 61.9575 49.9139C62.2845 50.0007 62.6393 50.0843 63.0206 50.1618C63.3971 50.2347 63.7721 50.3246 64.1456 50.4299C64.5191 50.5353 64.86 50.6872 65.1668 50.884C65.4736 51.0808 65.72 51.3535 65.906 51.6991C66.0919 52.0446 66.1849 52.4956 66.1849 53.0503V53.0643C66.1849 54.0096 65.8579 54.7394 65.204 55.2555C64.55 55.7715 63.6311 56.0288 62.4425 56.0288Z" fill="white"/>
<path d="M70.8974 56.029C69.884 56.029 69.0968 55.7516 68.5373 55.1968C67.9779 54.642 67.699 53.8533 67.699 52.8305V52.0262C67.699 50.9632 67.9671 50.1388 68.5032 49.5561C69.0394 48.9735 69.7956 48.6821 70.7735 48.6821C71.6955 48.6821 72.4083 49.0199 72.912 49.6971C73.4171 50.3728 73.6682 51.3258 73.6682 52.5547V53.0227H68.8194V51.8186H72.1418L72.134 51.7427C72.0875 51.2468 71.9481 50.8609 71.7141 50.5835C71.4801 50.3062 71.1655 50.1667 70.7719 50.1667C70.2807 50.1667 69.8995 50.3216 69.6267 50.6316C69.354 50.9415 69.2176 51.38 69.2176 51.9488V52.8568C69.2176 53.3977 69.3648 53.8145 69.6577 54.1059C69.9506 54.3972 70.3644 54.5428 70.8959 54.5428C71.1671 54.5428 71.4336 54.4917 71.697 54.3879C71.9605 54.2841 72.1976 54.1415 72.4083 53.9586L73.4807 54.9628C73.1181 55.3022 72.712 55.5641 72.2596 55.75C71.8102 55.936 71.3546 56.029 70.8974 56.029Z" fill="white"/>
<path d="M75.4564 48.7858H77.1688V55.925H75.4564V48.7858ZM79.4328 50.6237C79.3274 50.5043 79.1926 50.4145 79.0299 50.3525C78.8672 50.2905 78.6797 50.2595 78.4689 50.2595C78.0567 50.2595 77.7359 50.3819 77.5097 50.6283C77.2819 50.8731 77.1688 51.2141 77.1688 51.6495L77.0247 50.0332C77.2308 49.6117 77.5004 49.2817 77.8336 49.043C78.1652 48.8044 78.5324 48.6851 78.9307 48.6851C79.2422 48.6851 79.5242 48.7315 79.7768 48.8261C80.0294 48.9206 80.2494 49.0585 80.437 49.2414L79.4328 50.6237Z" fill="white"/>
<path d="M83.9934 53.574L85.6034 48.7856H87.2739L84.5915 55.9264H83.3952L80.7128 48.7856H82.3833L83.9934 53.574Z" fill="white"/>
<path d="M88.4641 45.9253H90.1005V47.5695H88.4641V45.9253ZM88.4641 48.7859H90.1005V55.9251H88.4641V48.7859Z" fill="white"/>
<path d="M94.9989 56.029C93.9993 56.029 93.223 55.7485 92.6698 55.1891C92.1165 54.6296 91.8407 53.8409 91.8407 52.8228V51.8527C91.8407 50.8439 92.1165 50.0629 92.6667 49.5112C93.2168 48.9595 93.9947 48.6821 94.9989 48.6821C95.5722 48.6821 96.0898 48.7813 96.55 48.9781C97.0103 49.1749 97.3791 49.4569 97.6534 49.8242L96.5392 50.8702C96.3563 50.6734 96.1378 50.5215 95.8853 50.4162C95.6327 50.3108 95.3677 50.2581 95.0872 50.2581C94.5789 50.2581 94.1837 50.3976 93.9033 50.6781C93.6228 50.9585 93.4833 51.3506 93.4833 51.8542V52.8243C93.4833 53.3419 93.6228 53.7432 93.9033 54.0284C94.1837 54.3135 94.5774 54.4545 95.0872 54.4545C95.3661 54.4545 95.6327 54.3972 95.8853 54.2825C96.1378 54.1678 96.3548 54.0051 96.5392 53.7944L97.6534 54.9086C97.3776 55.2665 97.0087 55.5424 96.5454 55.7376C96.0836 55.9313 95.5676 56.029 94.9989 56.029Z" fill="white"/>
<path d="M102.056 56.029C101.043 56.029 100.255 55.7516 99.6959 55.1968C99.1365 54.642 98.8575 53.8533 98.8575 52.8305V52.0262C98.8575 50.9632 99.1256 50.1388 99.6618 49.5561C100.198 48.9735 100.954 48.6821 101.932 48.6821C102.854 48.6821 103.567 49.0199 104.071 49.6971C104.576 50.3728 104.827 51.3258 104.827 52.5547V53.0227H99.9779V51.8186H103.3L103.293 51.7427C103.246 51.2468 103.107 50.8609 102.873 50.5835C102.639 50.3062 102.324 50.1667 101.93 50.1667C101.439 50.1667 101.058 50.3216 100.785 50.6316C100.513 50.9415 100.376 51.38 100.376 51.9488V52.8568C100.376 53.3977 100.523 53.8145 100.816 54.1059C101.109 54.3972 101.523 54.5428 102.054 54.5428C102.326 54.5428 102.592 54.4917 102.856 54.3879C103.119 54.2841 103.356 54.1415 103.567 53.9586L104.639 54.9628C104.277 55.3022 103.871 55.5641 103.418 55.75C102.97 55.936 102.515 56.029 102.056 56.029Z" fill="white"/>
<path d="M110.537 45.9253H112.181V55.9267H110.537V45.9253ZM111.327 52.0464V50.4719H114.526C114.924 50.4719 115.246 50.3356 115.493 50.0628C115.738 49.7901 115.862 49.4337 115.862 48.9936C115.862 48.5395 115.741 48.1769 115.497 47.9073C115.254 47.6361 114.93 47.5013 114.527 47.5013H111.329V45.9268H114.479C115.098 45.9268 115.637 46.0539 116.096 46.308C116.554 46.5622 116.912 46.9186 117.17 47.3773C117.427 47.836 117.554 48.3753 117.554 48.9936C117.554 49.6088 117.425 50.145 117.17 50.6037C116.912 51.0623 116.554 51.4172 116.093 51.6698C115.632 51.9224 115.095 52.0479 114.479 52.0479H111.327V52.0464Z" fill="white"/>
<path d="M118.826 48.7858H120.539V55.925H118.826V48.7858ZM122.801 50.6237C122.696 50.5043 122.561 50.4145 122.398 50.3525C122.235 50.2905 122.048 50.2595 121.837 50.2595C121.425 50.2595 121.104 50.3819 120.878 50.6283C120.65 50.8731 120.537 51.2141 120.537 51.6495L120.393 50.0332C120.599 49.6117 120.869 49.2817 121.202 49.043C121.533 48.8044 121.901 48.6851 122.299 48.6851C122.61 48.6851 122.892 48.7315 123.145 48.8261C123.398 48.9206 123.618 49.0585 123.805 49.2414L122.801 50.6237Z" fill="white"/>
<path d="M127.506 56.0289C126.546 56.0289 125.806 55.7577 125.28 55.2138C124.755 54.6698 124.493 53.9059 124.493 52.9203V51.7581C124.493 50.7818 124.755 50.024 125.28 49.4878C125.806 48.9517 126.546 48.6836 127.506 48.6836C128.463 48.6836 129.206 48.9517 129.731 49.4878C130.256 50.024 130.518 50.7818 130.518 51.7581V52.9404C130.518 53.9214 130.256 54.6822 129.731 55.22C129.206 55.7608 128.465 56.0289 127.506 56.0289ZM127.506 54.4544C127.941 54.4544 128.279 54.3212 128.516 54.0562C128.755 53.7896 128.874 53.4193 128.874 52.942V51.7581C128.874 51.2808 128.755 50.912 128.516 50.6501C128.277 50.3882 127.941 50.258 127.506 50.258C127.075 50.258 126.739 50.3882 126.498 50.6501C126.258 50.912 126.137 51.2808 126.137 51.7581V52.9404C126.137 53.4177 126.258 53.7896 126.498 54.0546C126.739 54.3212 127.075 54.4544 127.506 54.4544Z" fill="white"/>
<path d="M134.626 53.574L136.235 48.7856H137.907L135.224 55.9264H134.027L131.344 48.7856H133.016L134.626 53.574Z" fill="white"/>
<path d="M139.097 45.9253H140.733V47.5695H139.097V45.9253ZM139.097 48.7859H140.733V55.9251H139.097V48.7859Z" fill="white"/>
<path d="M144.908 56.0429C144.133 56.0429 143.534 55.781 143.109 55.2588C142.684 54.7365 142.472 53.9974 142.472 53.0443V51.6822C142.472 50.7245 142.681 49.9822 143.101 49.4569C143.521 48.9316 144.112 48.6697 144.872 48.6697C145.272 48.6697 145.638 48.7813 145.973 49.006C146.307 49.2307 146.575 49.5468 146.777 49.9559L146.633 51.4761C146.633 51.2018 146.585 50.9678 146.489 50.7741C146.393 50.582 146.253 50.4347 146.069 50.334C145.886 50.2333 145.663 50.1821 145.401 50.1821C144.993 50.1821 144.676 50.3139 144.451 50.5773C144.226 50.8407 144.113 51.2142 144.113 51.6946V53.0428C144.113 53.5154 144.225 53.8811 144.451 54.1399C144.676 54.3987 144.992 54.5289 145.401 54.5289C145.663 54.5289 145.884 54.4777 146.069 54.3739C146.252 54.2701 146.393 54.1229 146.489 53.9307C146.585 53.7386 146.633 53.5061 146.633 53.2365L146.729 54.8047C146.596 55.158 146.376 55.4525 146.066 55.688C145.759 55.9251 145.371 56.0429 144.908 56.0429ZM146.636 45.9253H148.28V55.9267H146.636V45.9253Z" fill="white"/>
<path d="M153.265 56.029C152.252 56.029 151.465 55.7516 150.905 55.1968C150.346 54.642 150.065 53.8533 150.065 52.8305V52.0262C150.065 50.9632 150.333 50.1388 150.87 49.5561C151.406 48.9735 152.162 48.6821 153.14 48.6821C154.062 48.6821 154.775 49.0199 155.278 49.6971C155.783 50.3728 156.035 51.3258 156.035 52.5547V53.0227H151.186V51.8186H154.508L154.5 51.7427C154.454 51.2468 154.314 50.8609 154.08 50.5835C153.846 50.3062 153.532 50.1667 153.138 50.1667C152.647 50.1667 152.266 50.3216 151.993 50.6316C151.72 50.9415 151.584 51.38 151.584 51.9488V52.8568C151.584 53.3977 151.731 53.8145 152.024 54.1059C152.317 54.3972 152.731 54.5428 153.262 54.5428C153.532 54.5428 153.8 54.4917 154.063 54.3879C154.327 54.2841 154.564 54.1415 154.775 53.9586L155.847 54.9628C155.484 55.3022 155.078 55.5641 154.626 55.75C154.18 55.936 153.724 56.029 153.265 56.029Z" fill="white"/>
<path d="M157.826 48.7858H159.538V55.925H157.826V48.7858ZM161.802 50.6237C161.697 50.5043 161.562 50.4145 161.399 50.3525C161.237 50.2905 161.049 50.2595 160.838 50.2595C160.426 50.2595 160.105 50.3819 159.879 50.6283C159.653 50.8731 159.538 51.2141 159.538 51.6495L159.394 50.0332C159.6 49.6117 159.87 49.2817 160.203 49.043C160.535 48.8044 160.902 48.6851 161.3 48.6851C161.612 48.6851 161.894 48.7315 162.146 48.8261C162.399 48.9206 162.619 49.0585 162.806 49.2414L161.802 50.6237Z" fill="white"/>
<path d="M80.1797 19.0157C80.1797 18.9878 80.1782 18.9599 80.1766 18.9336C80.1921 18.9429 80.2061 18.9506 80.2216 18.9615C80.2092 18.9971 80.1952 19.0328 80.1782 19.0684C80.1797 19.0514 80.1797 19.0328 80.1797 19.0157Z" fill="white"/>
<path d="M82.0517 22.0082C81.7945 23.9158 79.2903 25.4143 76.236 25.4143C73.0127 25.4143 70.4 23.7438 70.4 21.6843C70.4 21.2737 70.5039 20.88 70.6945 20.5112C70.6805 20.6182 70.6728 20.7251 70.6728 20.8351C70.6728 22.8946 73.2854 24.5651 76.5102 24.5651C79.0919 24.5651 81.2831 23.4927 82.0517 22.0082Z" fill="white"/>
<path d="M80.1797 19.0157C80.1797 18.9878 80.1782 18.9599 80.1766 18.9336C80.1921 18.9429 80.2061 18.9506 80.2216 18.9615C80.2092 18.9971 80.1952 19.0328 80.1782 19.0684C80.1797 19.0514 80.1797 19.0328 80.1797 19.0157Z" fill="white"/>
<path d="M72.6438 18.7475C72.6376 18.7491 72.6299 18.7522 72.6237 18.7568C72.6299 18.7444 72.6345 18.7336 72.6423 18.7212C72.6423 18.7305 72.6423 18.7398 72.6438 18.7475Z" fill="white"/>
<path d="M82.3245 21.1587C82.3136 21.2393 82.2997 21.3168 82.2811 21.3958C82.2315 21.6065 82.154 21.8111 82.0518 22.0079C82.0626 21.9289 82.0688 21.8483 82.0719 21.7677C82.0735 21.7398 82.0735 21.7119 82.0735 21.684C82.0735 21.6205 82.0704 21.557 82.0657 21.4934C82.1618 21.3849 82.247 21.2734 82.3245 21.1587Z" fill="white"/>
<path d="M80.1797 19.0157C80.1797 18.9878 80.1782 18.9599 80.1766 18.9336C80.1921 18.9429 80.2061 18.9506 80.2216 18.9615C80.2092 18.9971 80.1952 19.0328 80.1782 19.0684C80.1797 19.0514 80.1797 19.0328 80.1797 19.0157Z" fill="white"/>
<path d="M72.6438 18.7475C72.6376 18.7491 72.6299 18.7522 72.6237 18.7568C72.6299 18.7444 72.6345 18.7336 72.6423 18.7212C72.6423 18.7305 72.6423 18.7398 72.6438 18.7475Z" fill="white"/>
<path d="M82.0734 21.469C82.0734 21.5 82.0734 21.5295 82.0718 21.5605C81.2257 23.0233 79.2391 24.0492 76.9239 24.0492C73.8401 24.0492 71.3406 22.2284 71.3406 19.9814C71.3406 19.9504 71.3406 19.9194 71.3421 19.8884C71.4212 19.752 71.5095 19.6203 71.6087 19.4917C71.7543 21.6441 74.195 23.3549 77.1843 23.3549C79.284 23.3549 81.1141 22.5119 82.0656 21.2614C82.0703 21.3311 82.0734 21.4008 82.0734 21.469Z" fill="white"/>
<path d="M82.3245 21.1587C82.3136 21.2393 82.2997 21.3168 82.2811 21.3958C82.2206 21.5229 82.1509 21.6468 82.0719 21.7677C82.0734 21.7398 82.0734 21.7119 82.0734 21.684C82.0734 21.6205 82.0703 21.557 82.0657 21.4934C82.1618 21.3849 82.247 21.2734 82.3245 21.1587Z" fill="white"/>
<path d="M80.1797 19.0157C80.1797 18.9878 80.1782 18.9599 80.1766 18.9336C80.1921 18.9429 80.2061 18.9506 80.2216 18.9615C80.2092 18.9971 80.1952 19.0328 80.1782 19.0684C80.1797 19.0514 80.1797 19.0328 80.1797 19.0157Z" fill="white"/>
<path d="M72.6438 18.7475C72.6376 18.7491 72.6299 18.7522 72.6237 18.7568C72.6299 18.7444 72.6345 18.7336 72.6423 18.7212C72.6423 18.7305 72.6423 18.7398 72.6438 18.7475Z" fill="white"/>
<path d="M80.1797 19.0157C80.1797 18.9878 80.1782 18.9599 80.1766 18.9336C80.1921 18.9429 80.2061 18.9506 80.2216 18.9615C80.2092 18.9971 80.1952 19.0328 80.1782 19.0684C80.1797 19.0514 80.1797 19.0328 80.1797 19.0157Z" fill="white"/>
<path d="M81.5806 20.1825C81.201 21.571 79.3058 22.6248 77.0247 22.6248C74.4694 22.6248 72.399 21.3014 72.399 19.668C72.399 19.3504 72.4781 19.0435 72.6237 18.7569C72.6299 18.7522 72.6377 18.7491 72.6439 18.7476C72.709 20.3437 74.7545 21.6237 77.268 21.6237C79.0919 21.6237 80.6679 20.9496 81.421 19.9702C81.4784 20.0384 81.5311 20.1097 81.5806 20.1825Z" fill="white"/>
<path d="M72.6438 18.7475C72.6376 18.7491 72.6299 18.7522 72.6237 18.7568C72.6299 18.7444 72.6345 18.7336 72.6423 18.7212C72.6423 18.7305 72.6423 18.7398 72.6438 18.7475Z" fill="white"/>
<path d="M80.1782 19.0684C80.1348 20.0819 78.8347 20.8955 77.237 20.8955C75.613 20.8955 74.2958 20.054 74.2958 19.0158C74.2958 18.8283 74.3376 18.6485 74.4182 18.478C74.4166 18.4951 74.4166 18.5137 74.4166 18.5307C74.4166 19.569 75.7338 20.4104 77.3579 20.4104C78.6905 20.4104 79.8171 19.8448 80.1782 19.0684Z" fill="white"/>
<path d="M80.1782 19.0684C80.1797 19.0514 80.1797 19.0328 80.1797 19.0157C80.1797 18.9878 80.1782 18.9599 80.1766 18.9336C80.1921 18.9429 80.2061 18.9506 80.2216 18.9615C80.2092 18.9971 80.1952 19.0328 80.1782 19.0684Z" fill="white"/>
<path d="M79.6839 18.6766C79.4236 19.3414 78.4798 19.8358 77.3579 19.8358C76.0345 19.8358 74.9622 19.1493 74.9622 18.3047C74.9622 18.2148 74.9746 18.1265 74.9978 18.0413C75.3961 17.9855 75.8114 17.9561 76.236 17.9561C77.5253 17.9561 78.7185 18.2226 79.6839 18.6766Z" fill="white"/>
</svg>
