<svg width="166" height="64" viewBox="0 0 166 64" fill="none" xmlns="http://www.w3.org/2000/svg">
<path d="M11.1289 36.6711V51.0841L47.07 30.2857L34.6639 23.1704L11.1289 36.6711Z" fill="url(#paint0_linear_101_1172)"/>
<path d="M24.6296 46.3406L11.1289 54.4592L24.6296 62.1218V46.3406Z" fill="url(#paint1_linear_101_1172)"/>
<path d="M11.1289 18.7918V33.2047L31.9273 21.1636L52.7257 9.12239L40.5021 1.82471L11.1289 18.7918Z" fill="white"/>
<path d="M63.8555 41.2736L67.684 23.1443H80.4364L79.8171 26.1002H70.8651L69.8798 30.7451H77.7902L77.1709 33.6728H69.2605L67.6559 41.2736H63.8555Z" fill="white"/>
<path d="M83.6403 41.5551C82.4955 41.5551 81.5009 41.3487 80.6563 40.9358C79.8306 40.5229 79.2394 39.8566 78.8828 38.937C78.545 37.9987 78.5356 36.7694 78.8547 35.2493C79.1925 33.654 79.7555 32.2934 80.5437 31.1674C81.332 30.0413 82.2797 29.178 83.387 28.5775C84.4943 27.9582 85.6766 27.6485 86.934 27.6485C87.6847 27.6485 88.3322 27.7329 88.8764 27.9019C89.4207 28.0708 89.9274 28.371 90.3966 28.8027L90.5655 27.93H94.3659L91.5508 41.2736H88.2853L88.3134 40.0349C87.619 40.5417 86.8965 40.9264 86.1458 41.1891C85.4139 41.4331 84.5787 41.5551 83.6403 41.5551ZM85.2731 38.7681C86.4554 38.7681 87.544 38.3646 88.5386 37.5576L89.7773 31.6178C89.1955 30.8296 88.3791 30.4354 87.3281 30.4354C84.9447 30.4354 83.4058 32.0401 82.7114 35.2493C82.4111 36.6193 82.458 37.5483 82.8521 38.0362C83.265 38.5242 84.072 38.7681 85.2731 38.7681Z" fill="white"/>
<path d="M99.3998 41.5551C98.4052 41.5551 97.4762 41.48 96.6129 41.3299C95.7496 41.1985 95.0646 41.0296 94.5579 40.8232L95.2335 37.6703C95.8341 37.933 96.5285 38.1394 97.3167 38.2896C98.1237 38.4209 98.8744 38.4866 99.5688 38.4866C100.507 38.4866 101.183 38.4303 101.596 38.3177C102.009 38.2051 102.252 37.9518 102.328 37.5576C102.421 37.1072 102.187 36.7788 101.624 36.5724C101.08 36.3659 100.273 36.075 99.2028 35.6997C98.058 35.2868 97.2135 34.7801 96.6692 34.1795C96.1437 33.5602 96.003 32.7063 96.2469 31.6178C96.5285 30.3416 97.1759 29.3657 98.1894 28.6901C99.2028 27.9957 100.798 27.6485 102.975 27.6485C103.801 27.6485 104.57 27.7142 105.283 27.8456C105.997 27.9582 106.588 28.0989 107.057 28.2678L106.381 31.3926C105.931 31.1486 105.387 30.9703 104.749 30.8577C104.129 30.7263 103.538 30.6607 102.975 30.6607C102.168 30.6607 101.511 30.717 101.004 30.8296C100.517 30.9422 100.226 31.1861 100.132 31.5615C100.057 31.9744 100.254 32.2653 100.723 32.4342C101.192 32.6031 101.943 32.8564 102.975 33.1942C104.458 33.6822 105.415 34.2546 105.846 34.9115C106.297 35.5683 106.409 36.4316 106.184 37.5013C105.903 38.8338 105.227 39.8473 104.157 40.5417C103.106 41.2173 101.521 41.5551 99.3998 41.5551Z" fill="white"/>
<path d="M112.829 41.5551C111.347 41.5551 110.305 41.1516 109.705 40.3446C109.104 39.5376 108.954 38.4397 109.254 37.0509L110.577 30.8577H108.691L109.311 27.93H111.197L111.816 25.0586L115.842 23.9326L114.997 27.93H118.375L117.531 30.8577H114.378L113.111 36.7976C112.961 37.5295 112.998 38.0362 113.224 38.3177C113.468 38.5805 113.993 38.7118 114.8 38.7118C115.307 38.7118 115.87 38.618 116.489 38.4303L115.926 41.0484C115.025 41.3862 113.993 41.5551 112.829 41.5551Z" fill="white"/>
<path d="M121.452 41.5551C118.974 41.5551 118.008 40.2977 118.552 37.7829L121.846 22.2998H125.646L122.409 37.4732C122.315 37.9424 122.324 38.2708 122.437 38.4585C122.568 38.6274 122.84 38.7118 123.253 38.7118C123.741 38.7118 124.192 38.6462 124.604 38.5148L124.07 41.1328C123.281 41.4143 122.409 41.5551 121.452 41.5551Z" fill="white"/>
<path d="M129.522 25.4809L130.142 22.4969H134.28L133.661 25.4809H129.522ZM126.482 41.2736L128.706 30.7451H126.707L127.636 27.93H133.097L130.282 41.2736H126.482Z" fill="white"/>
<path d="M133.546 41.2736L136.361 27.93H139.88L139.767 29.1968C140.405 28.7839 141.165 28.4273 142.047 28.1271C142.948 27.808 143.858 27.6485 144.778 27.6485C148.156 27.6485 149.489 29.3376 148.775 32.7157L146.974 41.2736H143.173L144.947 32.9127C145.135 32.0119 145.097 31.3738 144.834 30.9985C144.572 30.6231 143.971 30.4354 143.033 30.4354C142.338 30.4354 141.672 30.5668 141.034 30.8296C140.396 31.0923 139.833 31.4207 139.345 31.8148L137.346 41.2736H133.546Z" fill="white"/>
<path d="M150.067 41.2736L154.093 22.2998H157.893L155.669 32.7438L161.665 27.93H166.001L159.47 33.3913L163.495 41.2736H159.47L156.655 35.39L154.797 36.882L153.868 41.2736H150.067Z" fill="white"/>
<defs>
<linearGradient id="paint0_linear_101_1172" x1="11.1745" y1="55.075" x2="33.5237" y2="27.1385" gradientUnits="userSpaceOnUse">
<stop stop-color="white"/>
<stop offset="1" stop-color="#A5A5A5"/>
</linearGradient>
<linearGradient id="paint1_linear_101_1172" x1="11.1745" y1="55.075" x2="33.5237" y2="27.1385" gradientUnits="userSpaceOnUse">
<stop stop-color="white"/>
<stop offset="1" stop-color="#A5A5A5"/>
</linearGradient>
</defs>
</svg>
