<svg width="20" height="20" viewBox="0 0 20 20" fill="none" xmlns="http://www.w3.org/2000/svg">
<path d="M6.37505 17.425C6.35005 17.425 6.31672 17.4417 6.29172 17.4417C4.67505 16.6417 3.35838 15.3167 2.55005 13.7C2.55005 13.675 2.56672 13.6417 2.56672 13.6167C3.58338 13.9167 4.63338 14.1417 5.67505 14.3167C5.85838 15.3667 6.07505 16.4084 6.37505 17.425Z" fill="#9C9BA1"/>
<path d="M17.45 13.7084C16.625 15.3667 15.25 16.7084 13.575 17.5167C13.8916 16.4584 14.1583 15.3917 14.3333 14.3167C15.3833 14.1417 16.4166 13.9167 17.4333 13.6167C17.425 13.65 17.45 13.6834 17.45 13.7084Z" fill="#9C9BA1"/>
<path d="M17.5166 6.42507C16.4666 6.1084 15.4083 5.85007 14.3333 5.66673C14.1583 4.59173 13.9 3.52507 13.575 2.4834C15.3 3.3084 16.6916 4.70007 17.5166 6.42507Z" fill="#9C9BA1"/>
<path d="M6.37507 2.5748C6.07507 3.59147 5.8584 4.6248 5.6834 5.6748C4.6084 5.84147 3.54173 6.10814 2.4834 6.4248C3.29173 4.7498 4.6334 3.3748 6.29173 2.5498C6.31673 2.5498 6.35007 2.5748 6.37507 2.5748Z" fill="#9C9BA1"/>
<path d="M12.9085 5.4915C10.9751 5.27484 9.02513 5.27484 7.0918 5.4915C7.30013 4.34984 7.5668 3.20817 7.9418 2.10817C7.95846 2.0415 7.95013 1.9915 7.95846 1.92484C8.6168 1.7665 9.2918 1.6665 10.0001 1.6665C10.7001 1.6665 11.3835 1.7665 12.0335 1.92484C12.0418 1.9915 12.0418 2.0415 12.0585 2.10817C12.4335 3.2165 12.7001 4.34984 12.9085 5.4915Z" fill="#9C9BA1"/>
<path d="M5.49175 12.908C4.34175 12.6996 3.20841 12.433 2.10841 12.058C2.04175 12.0413 1.99175 12.0496 1.92508 12.0413C1.76675 11.383 1.66675 10.708 1.66675 9.99964C1.66675 9.29964 1.76675 8.61631 1.92508 7.96631C1.99175 7.95798 2.04175 7.95797 2.10841 7.94131C3.21675 7.57464 4.34175 7.29964 5.49175 7.09131C5.28341 9.02464 5.28341 10.9746 5.49175 12.908Z" fill="#9C9BA1"/>
<path d="M18.3333 9.99964C18.3333 10.708 18.2333 11.383 18.075 12.0413C18.0083 12.0496 17.9583 12.0413 17.8916 12.058C16.7833 12.4246 15.65 12.6996 14.5083 12.908C14.725 10.9746 14.725 9.02464 14.5083 7.09131C15.65 7.29964 16.7916 7.56631 17.8916 7.94131C17.9583 7.95797 18.0083 7.96631 18.075 7.96631C18.2333 8.62464 18.3333 9.29964 18.3333 9.99964Z" fill="#9C9BA1"/>
<path d="M12.9085 14.5083C12.7001 15.6583 12.4335 16.7916 12.0585 17.8916C12.0418 17.9583 12.0418 18.0083 12.0335 18.075C11.3835 18.2333 10.7001 18.3333 10.0001 18.3333C9.2918 18.3333 8.6168 18.2333 7.95846 18.075C7.95013 18.0083 7.95846 17.9583 7.9418 17.8916C7.57513 16.7833 7.30013 15.6583 7.0918 14.5083C8.05846 14.6166 9.02513 14.6916 10.0001 14.6916C10.9751 14.6916 11.9501 14.6166 12.9085 14.5083Z" fill="#9C9BA1"/>
<path d="M13.1362 13.1359C11.0519 13.3989 8.94822 13.3989 6.86397 13.1359C6.60101 11.0517 6.60101 8.94797 6.86397 6.86373C8.94822 6.60076 11.0519 6.60076 13.1362 6.86373C13.3992 8.94797 13.3992 11.0517 13.1362 13.1359Z" fill="#9C9BA1"/>
</svg>
