<svg width="32" height="32" viewBox="0 0 32 32" fill="none" xmlns="http://www.w3.org/2000/svg">
<path d="M25.3327 12.0001C25.3327 13.9334 24.7593 15.7068 23.7727 17.1868C22.3327 19.3201 20.0527 20.8268 17.3993 21.2134C16.946 21.2934 16.4793 21.3334 15.9993 21.3334C15.5193 21.3334 15.0527 21.2934 14.5993 21.2134C11.946 20.8268 9.66602 19.3201 8.22602 17.1868C7.23935 15.7068 6.66602 13.9334 6.66602 12.0001C6.66602 6.84008 10.8393 2.66675 15.9993 2.66675C21.1593 2.66675 25.3327 6.84008 25.3327 12.0001Z" stroke="white" stroke-width="1.5" stroke-linecap="round" stroke-linejoin="round"/>
<path d="M28.3328 24.6266L26.1328 25.1466C25.6395 25.2666 25.2528 25.64 25.1461 26.1333L24.6795 28.0933C24.4261 29.16 23.0661 29.48 22.3595 28.64L15.9995 21.3333L9.63945 28.6533C8.93279 29.4933 7.57279 29.1733 7.31945 28.1066L6.85279 26.1466C6.73279 25.6533 6.34612 25.2666 5.86612 25.16L3.66612 24.64C2.65279 24.4 2.29279 23.1333 3.02612 22.3999L8.22612 17.2C9.66612 19.3333 11.9461 20.84 14.5995 21.2266C15.0528 21.3066 15.5195 21.3466 15.9995 21.3466C16.4795 21.3466 16.9461 21.3066 17.3995 21.2266C20.0528 20.84 22.3328 19.3333 23.7728 17.2L28.9728 22.3999C29.7061 23.1199 29.3461 24.3866 28.3328 24.6266Z" stroke="white" stroke-width="1.5" stroke-linecap="round" stroke-linejoin="round"/>
<path d="M16.7726 7.97325L17.5593 9.54658C17.666 9.75991 17.946 9.97325 18.1993 10.0132L19.626 10.2532C20.5326 10.3999 20.746 11.0666 20.0926 11.7199L18.986 12.8266C18.7993 13.0132 18.6926 13.3733 18.7593 13.6399L19.0793 15.0132C19.3326 16.0932 18.7593 16.5199 17.7993 15.9466L16.466 15.1599C16.226 15.0132 15.826 15.0132 15.586 15.1599L14.2526 15.9466C13.2926 16.5066 12.7193 16.0932 12.9726 15.0132L13.2926 13.6399C13.346 13.3866 13.2526 13.0132 13.066 12.8266L11.9593 11.7199C11.306 11.0666 11.5193 10.4132 12.426 10.2532L13.8526 10.0132C14.0926 9.97325 14.3726 9.75991 14.4793 9.54658L15.266 7.97325C15.6526 7.11992 16.346 7.11992 16.7726 7.97325Z" stroke="white" stroke-width="1.5" stroke-linecap="round" stroke-linejoin="round"/>
</svg>
