<svg width="25" height="24" viewBox="0 0 25 24" fill="none" xmlns="http://www.w3.org/2000/svg">
<path d="M13.42 2.25997L19.93 5.76997C20.69 6.17997 20.69 7.34997 19.93 7.75997L13.42 11.27C12.84 11.58 12.16 11.58 11.58 11.27L5.07 7.75997C4.31 7.34997 4.31 6.17997 5.07 5.76997L11.58 2.25997C12.16 1.94997 12.84 1.94997 13.42 2.25997Z" stroke="#D6111E" stroke-width="1.5" stroke-linecap="round" stroke-linejoin="round"/>
<path d="M4.11 10.13L10.16 13.16C10.91 13.54 11.39 14.31 11.39 15.15V20.8701C11.39 21.7001 10.52 22.2301 9.78 21.8601L3.73 18.83C2.98 18.45 2.5 17.68 2.5 16.84V11.12C2.5 10.29 3.37 9.76005 4.11 10.13Z" stroke="#D6111E" stroke-width="1.5" stroke-linecap="round" stroke-linejoin="round"/>
<path d="M20.89 10.13L14.84 13.16C14.09 13.54 13.61 14.31 13.61 15.15V20.8701C13.61 21.7001 14.48 22.2301 15.22 21.8601L21.27 18.83C22.02 18.45 22.5 17.68 22.5 16.84V11.12C22.5 10.29 21.63 9.76005 20.89 10.13Z" stroke="#D6111E" stroke-width="1.5" stroke-linecap="round" stroke-linejoin="round"/>
</svg>
