<svg width="20" height="21" viewBox="0 0 20 21" fill="none" xmlns="http://www.w3.org/2000/svg">
<path fill-rule="evenodd" clip-rule="evenodd" d="M2 11.2861C2 8.11774 2 6.53356 2.75499 5.39252C3.09213 4.88299 3.5285 4.44663 4.03803 4.10948C5.17907 3.35449 6.76324 3.35449 9.9316 3.35449C13.1 3.35449 14.6841 3.35449 15.8252 4.10948C16.3347 4.44663 16.7711 4.88299 17.1082 5.39252C17.8632 6.53356 17.8632 8.11774 17.8632 11.2861C17.8632 14.4544 17.8632 16.0386 17.1082 17.1797C16.7711 17.6892 16.3347 18.1256 15.8252 18.4627C14.6841 19.2177 13.1 19.2177 9.9316 19.2177C6.76324 19.2177 5.17907 19.2177 4.03803 18.4627C3.5285 18.1256 3.09213 17.6892 2.75499 17.1797C2 16.0386 2 14.4544 2 11.2861ZM14.0386 11.286C14.0386 13.5538 12.2001 15.3923 9.9323 15.3923C7.66446 15.3923 5.82602 13.5538 5.82602 11.286C5.82602 9.01817 7.66446 7.17972 9.9323 7.17972C12.2001 7.17972 14.0386 9.01817 14.0386 11.286ZM9.9323 14.003C11.4329 14.003 12.6493 12.7866 12.6493 11.286C12.6493 9.78544 11.4329 8.56899 9.9323 8.56899C8.43174 8.56899 7.21529 9.78544 7.21529 11.286C7.21529 12.7866 8.43174 14.003 9.9323 14.003ZM14.2008 7.93854C14.7337 7.93854 15.1657 7.50656 15.1657 6.97368C15.1657 6.4408 14.7337 6.00882 14.2008 6.00882C13.6679 6.00882 13.2359 6.4408 13.2359 6.97368C13.2359 7.50656 13.6679 7.93854 14.2008 7.93854Z" fill="#9C9BA1"/>
</svg>
