<svg width="20" height="21" viewBox="0 0 20 21" fill="none" xmlns="http://www.w3.org/2000/svg">
<path d="M1 4.34583C1 3.76862 1.20271 3.29243 1.60811 2.91726C2.01351 2.54208 2.54055 2.35449 3.18919 2.35449C3.82626 2.35449 4.34169 2.53918 4.73552 2.9086C5.14092 3.28956 5.34363 3.78594 5.34363 4.39778C5.34363 4.95189 5.14672 5.41364 4.7529 5.78306C4.3475 6.16401 3.81467 6.35449 3.15444 6.35449H3.13707C2.49999 6.35449 1.98456 6.16401 1.59073 5.78306C1.19691 5.40211 1 4.92303 1 4.34583ZM1.22587 19.4973V7.93025H5.08301V19.4973H1.22587ZM7.22008 19.4973H11.0772V13.0385C11.0772 12.6344 11.1236 12.3227 11.2162 12.1034C11.3784 11.7109 11.6245 11.379 11.9546 11.1077C12.2847 10.8364 12.6988 10.7008 13.1969 10.7008C14.4942 10.7008 15.1429 11.5724 15.1429 13.3155V19.4973H19V12.8653C19 11.1568 18.5946 9.86098 17.7838 8.97787C16.973 8.09475 15.9015 7.65319 14.5695 7.65319C13.0753 7.65319 11.9112 8.29388 11.0772 9.57527V9.6099H11.0598L11.0772 9.57527V7.93025H7.22008C7.24324 8.29965 7.25483 9.44827 7.25483 11.3761C7.25483 13.304 7.24324 16.011 7.22008 19.4973Z" fill="#9C9BA1"/>
</svg>
