<svg width="20" height="21" viewBox="0 0 20 21" fill="none" xmlns="http://www.w3.org/2000/svg">
<path d="M18.3327 6.8042V15.1375C18.3327 15.6901 18.1132 16.22 17.7225 16.6107C17.3318 17.0014 16.8019 17.2209 16.2493 17.2209H3.74935C3.19681 17.2209 2.66691 17.0014 2.27621 16.6107C1.88551 16.22 1.66602 15.6901 1.66602 15.1375V6.8042" stroke="white" stroke-width="1.4" stroke-linecap="round" stroke-linejoin="round"/>
<path d="M18.3327 6.80404C18.3327 6.2515 18.1132 5.7216 17.7225 5.3309C17.3318 4.9402 16.8019 4.7207 16.2493 4.7207H3.74935C3.19681 4.7207 2.66691 4.9402 2.27621 5.3309C1.88551 5.7216 1.66602 6.2515 1.66602 6.80404L8.89518 11.3179C9.22629 11.5249 9.60889 11.6346 9.99935 11.6346C10.3898 11.6346 10.7724 11.5249 11.1035 11.3179L18.3327 6.80404Z" stroke="white" stroke-width="1.4" stroke-linecap="round" stroke-linejoin="round"/>
</svg>
