<svg width="33" height="32" viewBox="0 0 33 32" fill="none" xmlns="http://www.w3.org/2000/svg">
<path d="M29.8327 12.0001V20.0001C29.8327 23.3334 29.166 25.6668 27.6727 27.1734L19.166 18.6668L29.4727 8.36011C29.7127 9.41344 29.8327 10.6134 29.8327 12.0001Z" stroke="white" stroke-width="1.5" stroke-linecap="round" stroke-linejoin="round"/>
<path d="M29.4727 8.36009L8.85933 28.9734C4.846 28.0534 3.16602 25.2801 3.16602 20.0001V12.0001C3.16602 5.33341 5.83268 2.66675 12.4993 2.66675H20.4993C25.7793 2.66675 28.5527 4.34675 29.4727 8.36009Z" stroke="white" stroke-width="1.5" stroke-linecap="round" stroke-linejoin="round"/>
<path d="M27.6727 27.1734C26.1661 28.6668 23.8327 29.3334 20.4994 29.3334H12.4994C11.1127 29.3334 9.91271 29.2134 8.85938 28.9734L19.1661 18.6667L27.6727 27.1734Z" stroke="white" stroke-width="1.5" stroke-linecap="round" stroke-linejoin="round"/>
<path d="M8.82035 10.64C9.72702 6.73329 15.5937 6.73329 16.5004 10.64C17.0204 12.9333 15.5803 14.88 14.3137 16.08C13.3937 16.96 11.9404 16.96 11.007 16.08C9.74037 14.88 8.28702 12.9333 8.82035 10.64Z" stroke="white" stroke-width="1.5"/>
<path d="M12.6261 11.6H12.6381" stroke="white" stroke-width="2" stroke-linecap="round" stroke-linejoin="round"/>
</svg>
