<svg width="41" height="40" viewBox="0 0 41 40" fill="none" xmlns="http://www.w3.org/2000/svg">
<path d="M4.31641 12.9667V29.1834C4.31641 32.35 6.56641 33.65 9.29974 32.0834L13.2164 29.85C14.0664 29.3667 15.4831 29.3167 16.3664 29.7667L25.1164 34.15C25.9997 34.5834 27.4164 34.55 28.2664 34.0667L35.4831 29.9334C36.3997 29.4 37.1664 28.1 37.1664 27.0334V10.8167C37.1664 7.65004 34.9164 6.35004 32.1831 7.91671L28.2664 10.15C27.4164 10.6334 25.9997 10.6834 25.1164 10.2334L16.3664 5.86671C15.4831 5.43337 14.0664 5.46671 13.2164 5.95004L5.99974 10.0834C5.06641 10.6167 4.31641 11.9167 4.31641 12.9667Z" fill="#D6111E" fill-opacity="0.08" stroke="#D6111E" stroke-width="1.5" stroke-linecap="round" stroke-linejoin="round"/>
<path d="M14.7676 6.66675V28.3334" stroke="#D6111E" stroke-width="1.5" stroke-linecap="round" stroke-linejoin="round"/>
<path d="M26.7168 11.0334V33.3334" stroke="#D6111E" stroke-width="1.5" stroke-linecap="round" stroke-linejoin="round"/>
</svg>
