<svg width="20" height="21" viewBox="0 0 20 21" fill="none" xmlns="http://www.w3.org/2000/svg">
<path d="M16.8602 9.51026C16.8602 14.8891 11.351 18.2028 10.2061 18.834C10.1427 18.869 10.0714 18.8874 9.999 18.8874C9.92657 18.8874 9.85532 18.869 9.79189 18.834C8.64615 18.2028 3.13867 14.8891 3.13867 9.51026C3.13867 5.22229 5.71146 2.2207 9.99943 2.2207C14.2874 2.2207 16.8602 5.22229 16.8602 9.51026Z" stroke="white" stroke-width="1.4" stroke-linecap="round" stroke-linejoin="round"/>
<path d="M6.56836 9.08126C6.56836 9.99105 6.92977 10.8636 7.57309 11.5069C8.21642 12.1502 9.08895 12.5116 9.99874 12.5116C10.9085 12.5116 11.7811 12.1502 12.4244 11.5069C13.0677 10.8636 13.4291 9.99105 13.4291 9.08126C13.4291 8.17147 13.0677 7.29893 12.4244 6.65561C11.7811 6.01229 10.9085 5.65088 9.99874 5.65088C9.08895 5.65088 8.21642 6.01229 7.57309 6.65561C6.92977 7.29893 6.56836 8.17147 6.56836 9.08126V9.08126Z" stroke="white" stroke-width="1.4" stroke-linecap="round" stroke-linejoin="round"/>
</svg>
