<svg width="200" height="105" viewBox="0 0 200 105" fill="none" xmlns="http://www.w3.org/2000/svg">
<path d="M190.046 100C195.569 100 200.098 95.5116 199.547 90.0163C197.254 67.1613 187.142 45.6749 170.757 29.2893C152.003 10.5357 126.568 2.00233e-06 100.046 0C73.5246 -2.00233e-06 48.0892 10.5357 29.3356 29.2893C12.95 45.6749 2.83801 67.1613 0.545529 90.0163C-0.00567627 95.5116 4.52337 100 10.0462 100C15.5691 100 19.9817 95.5054 20.6701 90.0257C22.8738 72.486 30.8452 56.0639 43.4777 43.4314C58.4806 28.4285 78.8289 20 100.046 20C121.264 20 141.612 28.4286 156.615 43.4315C169.247 56.0639 177.219 72.486 179.422 90.0257C180.111 95.5054 184.523 100 190.046 100Z" fill="#EDEDED"/>
<path d="M10.046 100.13C4.52313 100.13 -0.00581634 95.6414 0.545556 90.1461C1.37808 81.8488 3.24529 73.6878 6.10352 65.854C7.99651 60.6657 14.0265 58.5933 18.9999 60.9948C23.9733 63.3963 25.9928 69.3623 24.2301 74.5963C22.5277 79.651 21.3352 84.8635 20.6702 90.1555C19.9816 95.6353 15.5688 100.13 10.046 100.13Z" fill="#D6111E"/>
<path d="M76.4922 96H72.9531V83.1211L68.957 84.3281V81.4688L76.1289 78.9141H76.4922V96ZM82.3867 87.6328L83.3828 78.9375H93.0391V81.8555H86.2891L85.8789 85.3945C86.0977 85.2773 86.4297 85.1445 86.875 84.9961C87.3281 84.8477 87.8359 84.7734 88.3984 84.7734C89.5078 84.7734 90.4492 85 91.2227 85.4531C91.9961 85.9062 92.5859 86.5625 92.9922 87.4219C93.4062 88.2734 93.6133 89.3047 93.6133 90.5156C93.6133 91.5156 93.4023 92.4531 92.9805 93.3281C92.5664 94.1953 91.9297 94.8984 91.0703 95.4375C90.2109 95.9688 89.125 96.2344 87.8125 96.2344C87.0625 96.2344 86.3398 96.1211 85.6445 95.8945C84.957 95.668 84.3398 95.3398 83.793 94.9102C83.2461 94.4727 82.8086 93.9453 82.4805 93.3281C82.1602 92.7031 81.9922 92 81.9766 91.2188H85.4922C85.5547 91.8906 85.7891 92.4219 86.1953 92.8125C86.6016 93.1953 87.1328 93.3867 87.7891 93.3867C88.3438 93.3867 88.7891 93.25 89.125 92.9766C89.4609 92.6953 89.7031 92.3203 89.8516 91.8516C90 91.3828 90.0742 90.8633 90.0742 90.293C90.0742 89.7148 89.9766 89.2109 89.7812 88.7812C89.5938 88.3438 89.3047 88.0039 88.9141 87.7617C88.5234 87.5195 88.0234 87.3984 87.4141 87.3984C86.8125 87.3984 86.3477 87.4961 86.0195 87.6914C85.6914 87.8867 85.4219 88.0977 85.2109 88.3242L82.3867 87.6328ZM100.891 78.9375L105.121 91.1133L109.34 78.9375H112.445L106.363 96H103.855L97.7852 78.9375H100.891ZM99.1914 78.9375L99.7656 91.582V96H96.0742V78.9375H99.1914ZM114.156 78.9375V96H110.465V91.582L111.027 78.9375H114.156ZM119.535 88.6172L119.512 86.0508H123.156C124.086 86.0508 124.773 85.8789 125.219 85.5352C125.664 85.1836 125.887 84.6797 125.887 84.0234C125.887 83.2734 125.668 82.7344 125.23 82.4062C124.793 82.0781 124.102 81.9141 123.156 81.9141H120.812V96H117.121V78.9375H123.156C125.164 78.9375 126.734 79.3203 127.867 80.0859C129 80.8516 129.566 82.0312 129.566 83.625C129.566 84.3203 129.406 84.9727 129.086 85.582C128.773 86.1836 128.273 86.6719 127.586 87.0469C126.898 87.4219 126.004 87.6211 124.902 87.6445L123.871 88.6172H119.535ZM118.527 96L119.957 93.0352H123.719C124.602 93.0352 125.246 92.8359 125.652 92.4375C126.059 92.0312 126.262 91.5273 126.262 90.9258C126.262 90.4492 126.18 90.0391 126.016 89.6953C125.852 89.3516 125.594 89.0859 125.242 88.8984C124.898 88.7109 124.441 88.6172 123.871 88.6172H120.449L120.473 86.0508H124.703L125.559 87.0703C126.613 87.0469 127.461 87.2227 128.102 87.5977C128.742 87.9648 129.207 88.4492 129.496 89.0508C129.785 89.6523 129.93 90.2891 129.93 90.9609C129.93 92.625 129.395 93.8828 128.324 94.7344C127.254 95.5781 125.719 96 123.719 96H118.527Z" fill="#171422"/>
</svg>
