<svg width="40" height="40" viewBox="0 0 40 40" fill="none" xmlns="http://www.w3.org/2000/svg">
<path d="M19.02 27.5H15.5C14.88 27.5 14.33 27.48 13.84 27.41C11.21 27.12 10.5 25.88 10.5 22.5V17.5C10.5 14.12 11.21 12.88 13.84 12.59C14.33 12.52 14.88 12.5 15.5 12.5H18.96" stroke="#D6111E" stroke-width="1.5" stroke-linecap="round" stroke-linejoin="round"/>
<path d="M23.02 12.5H24.5C25.12 12.5 25.67 12.52 26.16 12.59C28.79 12.88 29.5 14.12 29.5 17.5V22.5C29.5 25.88 28.79 27.12 26.16 27.41C25.67 27.48 25.12 27.5 24.5 27.5H23.02" stroke="#D6111E" stroke-width="1.5" stroke-linecap="round" stroke-linejoin="round"/>
<path d="M23 10V30" stroke="#D6111E" stroke-width="1.5" stroke-linecap="round" stroke-linejoin="round"/>
<path d="M19.0946 20H19.1036" stroke="#D6111E" stroke-width="2" stroke-linecap="round" stroke-linejoin="round"/>
<path d="M15.0946 20H15.1036" stroke="#D6111E" stroke-width="2" stroke-linecap="round" stroke-linejoin="round"/>
</svg>
