<svg width="40" height="40" viewBox="0 0 40 40" fill="none" xmlns="http://www.w3.org/2000/svg">
<path d="M29.0799 16.58V23.42C29.0799 24.54 28.4799 25.58 27.5099 26.15L21.5699 29.58C20.5999 30.14 19.3999 30.14 18.4199 29.58L12.4799 26.15C11.5099 25.59 10.9099 24.55 10.9099 23.42V16.58C10.9099 15.46 11.5099 14.42 12.4799 13.85L18.4199 10.42C19.3899 9.86 20.5899 9.86 21.5699 10.42L27.5099 13.85C28.4799 14.42 29.0799 15.45 29.0799 16.58Z" stroke="#D6111E" stroke-width="1.5" stroke-linecap="round" stroke-linejoin="round"/>
<path d="M19.9999 19C21.2867 19 22.3299 17.9568 22.3299 16.67C22.3299 15.3832 21.2867 14.34 19.9999 14.34C18.7131 14.34 17.6699 15.3832 17.6699 16.67C17.6699 17.9568 18.7131 19 19.9999 19Z" stroke="#D6111E" stroke-width="1.5" stroke-linecap="round" stroke-linejoin="round"/>
<path d="M24 24.66C24 22.86 22.21 21.4 20 21.4C17.79 21.4 16 22.86 16 24.66" stroke="#D6111E" stroke-width="1.5" stroke-linecap="round" stroke-linejoin="round"/>
</svg>
