<svg width="20" height="21" viewBox="0 0 20 21" fill="none" xmlns="http://www.w3.org/2000/svg">
<path d="M12.2509 18.2396L12.26 18.246C13.0471 18.7471 13.9815 18.9647 14.909 18.8629C15.8365 18.761 16.7014 18.3458 17.361 17.6858L17.9339 17.1128C18.0609 16.986 18.1616 16.8353 18.2303 16.6695C18.299 16.5036 18.3344 16.3259 18.3344 16.1464C18.3344 15.9669 18.299 15.7892 18.2303 15.6233C18.1616 15.4575 18.0609 15.3068 17.9339 15.18L15.5173 12.7652C15.3905 12.6382 15.2398 12.5375 15.074 12.4688C14.9081 12.4001 14.7304 12.3647 14.5509 12.3647C14.3714 12.3647 14.1937 12.4001 14.0278 12.4688C13.862 12.5375 13.7113 12.6382 13.5845 12.7652C13.3282 13.0214 12.9808 13.1653 12.6185 13.1653C12.2562 13.1653 11.9087 13.0214 11.6525 12.7652L7.78853 8.90035C7.53238 8.64413 7.38849 8.29666 7.38849 7.93436C7.38849 7.57206 7.53238 7.2246 7.78853 6.96837C7.91549 6.84149 8.01621 6.69083 8.08493 6.525C8.15365 6.35917 8.18902 6.18143 8.18902 6.00193C8.18902 5.82243 8.15365 5.64469 8.08493 5.47886C8.01621 5.31303 7.91549 5.16237 7.78853 5.03549L5.37287 2.62074C5.11665 2.3646 4.76918 2.2207 4.40688 2.2207C4.04458 2.2207 3.69712 2.3646 3.44089 2.62074L2.86704 3.19369C2.20719 3.85333 1.79213 4.71834 1.69044 5.64581C1.58875 6.57327 1.80652 7.50767 2.30776 8.29461L2.31323 8.30372C4.96041 12.2203 8.33385 15.5931 12.2509 18.2396V18.2396Z" stroke="white" stroke-width="1.4" stroke-linecap="round" stroke-linejoin="round"/>
</svg>
