<svg width="32" height="32" viewBox="0 0 32 32" fill="none" xmlns="http://www.w3.org/2000/svg">
<path d="M11.9999 25.3333C11.9999 26.3333 11.7199 27.28 11.2266 28.08C10.3066 29.6267 8.61325 30.6667 6.66659 30.6667C4.71992 30.6667 3.02659 29.6267 2.10659 28.08C1.61325 27.28 1.33325 26.3333 1.33325 25.3333C1.33325 22.3867 3.71992 20 6.66659 20C9.61325 20 11.9999 22.3867 11.9999 25.3333Z" stroke="#19A75A" stroke-width="1.5" stroke-miterlimit="10" stroke-linecap="round" stroke-linejoin="round"/>
<path d="M4.58838 25.3327L5.90838 26.6527L8.74838 24.0261" stroke="#19A75A" stroke-width="1.5" stroke-linecap="round" stroke-linejoin="round"/>
<path d="M23.6685 9.39998C23.3485 9.34664 23.0151 9.33333 22.6685 9.33333H9.33513C8.9618 9.33333 8.60179 9.35999 8.25513 9.41332C8.44179 9.03999 8.70846 8.69337 9.02846 8.37337L13.3618 4.02669C15.1885 2.21335 18.1485 2.21335 19.9751 4.02669L22.3085 6.38663C23.1618 7.22663 23.6151 8.29331 23.6685 9.39998Z" stroke="#19A75A" stroke-width="1.5" stroke-linecap="round" stroke-linejoin="round"/>
<path d="M29.3334 16V22.6666C29.3334 26.6666 26.6667 29.3333 22.6667 29.3333H10.1734C10.5867 28.9866 10.9467 28.56 11.2267 28.08C11.7201 27.28 12.0001 26.3333 12.0001 25.3333C12.0001 22.3866 9.61341 20 6.66675 20C5.06675 20 3.64008 20.7066 2.66675 21.8133V16C2.66675 12.3733 4.85341 9.83998 8.25341 9.41331C8.60008 9.35998 8.96008 9.33331 9.33341 9.33331H22.6667C23.0134 9.33331 23.3467 9.34663 23.6667 9.39996C27.1067 9.79996 29.3334 12.3466 29.3334 16Z" stroke="#19A75A" stroke-width="1.5" stroke-linecap="round" stroke-linejoin="round"/>
<path d="M29.3334 16.6667H25.3334C23.8667 16.6667 22.6667 17.8667 22.6667 19.3334C22.6667 20.8 23.8667 22 25.3334 22H29.3334" stroke="#19A75A" stroke-width="1.5" stroke-linecap="round" stroke-linejoin="round"/>
</svg>
