<svg width="33" height="32" viewBox="0 0 33 32" fill="none" xmlns="http://www.w3.org/2000/svg">
<path d="M25.8334 12C25.8334 13.9334 25.2601 15.7067 24.2734 17.1867C22.8334 19.32 20.5534 20.8267 17.9001 21.2134C17.4467 21.2934 16.9801 21.3334 16.5001 21.3334C16.0201 21.3334 15.5534 21.2934 15.1001 21.2134C12.4467 20.8267 10.1667 19.32 8.72675 17.1867C7.74008 15.7067 7.16675 13.9334 7.16675 12C7.16675 6.84002 11.3401 2.66669 16.5001 2.66669C21.6601 2.66669 25.8334 6.84002 25.8334 12Z" stroke="#2777D6" stroke-width="1.5" stroke-linecap="round" stroke-linejoin="round"/>
<path d="M28.8333 24.6267L26.6333 25.1467C26.1399 25.2667 25.7533 25.64 25.6466 26.1334L25.1799 28.0934C24.9266 29.16 23.5666 29.48 22.8599 28.64L16.4999 21.3334L10.1399 28.6533C9.43328 29.4933 8.07328 29.1733 7.81994 28.1067L7.35328 26.1467C7.23328 25.6533 6.84661 25.2667 6.36661 25.16L4.16661 24.64C3.15328 24.4 2.79328 23.1333 3.52661 22.4L8.72661 17.2C10.1666 19.3333 12.4466 20.84 15.0999 21.2267C15.5533 21.3067 16.0199 21.3467 16.4999 21.3467C16.9799 21.3467 17.4466 21.3067 17.8999 21.2267C20.5533 20.84 22.8333 19.3333 24.2733 17.2L29.4733 22.4C30.2066 23.12 29.8466 24.3867 28.8333 24.6267Z" stroke="#2777D6" stroke-width="1.5" stroke-linecap="round" stroke-linejoin="round"/>
<path d="M17.2734 7.97331L18.06 9.54664C18.1667 9.75997 18.4467 9.97331 18.7 10.0133L20.1267 10.2533C21.0334 10.4 21.2467 11.0666 20.5934 11.72L19.4867 12.8266C19.3 13.0133 19.1934 13.3733 19.26 13.64L19.58 15.0133C19.8334 16.0933 19.26 16.52 18.3 15.9466L16.9667 15.16C16.7267 15.0133 16.3267 15.0133 16.0867 15.16L14.7534 15.9466C13.7934 16.5066 13.22 16.0933 13.4734 15.0133L13.7934 13.64C13.8467 13.3866 13.7534 13.0133 13.5667 12.8266L12.46 11.72C11.8067 11.0666 12.02 10.4133 12.9267 10.2533L14.3534 10.0133C14.5934 9.97331 14.8734 9.75997 14.98 9.54664L15.7667 7.97331C16.1534 7.11998 16.8467 7.11998 17.2734 7.97331Z" stroke="#2777D6" stroke-width="1.5" stroke-linecap="round" stroke-linejoin="round"/>
</svg>
