<svg width="32" height="32" viewBox="0 0 32 32" fill="none" xmlns="http://www.w3.org/2000/svg">
<path d="M18.6667 8.26662V13.3334C14.9467 13.4 13.4001 14.9467 13.3334 18.6667H8.26675C4.26675 18.6667 2.66675 17.0668 2.66675 13.0668V8.26662C2.66675 4.26662 4.26675 2.66669 8.26675 2.66669H13.0667C17.0667 2.66669 18.6667 4.26662 18.6667 8.26662Z" stroke="#C53ECE" stroke-width="1.5" stroke-linecap="round" stroke-linejoin="round"/>
<path d="M9.28001 7.82663C8.57335 7.34663 7.64002 7.34666 6.93335 7.85332" stroke="#C53ECE" stroke-width="1.5" stroke-miterlimit="10" stroke-linecap="round" stroke-linejoin="round"/>
<path d="M14.6133 7.82663C13.9066 7.34663 12.9733 7.34666 12.2666 7.85332" stroke="#C53ECE" stroke-width="1.5" stroke-miterlimit="10" stroke-linecap="round" stroke-linejoin="round"/>
<path d="M10.88 15.2267H7.78665C7.38665 15.2267 7.06665 14.9067 7.06665 14.5067C7.06665 12.52 8.67998 10.9067 10.6667 10.9067C11.52 10.9067 12.3066 11.2 12.92 11.6934" stroke="#C53ECE" stroke-width="1.5" stroke-miterlimit="10" stroke-linecap="round" stroke-linejoin="round"/>
<path d="M29.3333 18.9332V23.7334C29.3333 27.7334 27.7333 29.3333 23.7333 29.3333H18.9333C14.9333 29.3333 13.3333 27.7334 13.3333 23.7334V18.6666C13.3999 14.9466 14.9466 13.4 18.6666 13.3333H23.7333C27.7333 13.3333 29.3333 14.9332 29.3333 18.9332Z" stroke="#C53ECE" stroke-width="1.5" stroke-linecap="round" stroke-linejoin="round"/>
<path d="M19.9468 18.16C19.2401 18.64 18.3068 18.64 17.6001 18.1333" stroke="#C53ECE" stroke-width="1.5" stroke-miterlimit="10" stroke-linecap="round" stroke-linejoin="round"/>
<path d="M25.28 18.16C24.5733 18.64 23.64 18.64 22.9333 18.1333" stroke="#C53ECE" stroke-width="1.5" stroke-miterlimit="10" stroke-linecap="round" stroke-linejoin="round"/>
<path d="M18.4534 21.5734H24.2134C24.6134 21.5734 24.9334 21.8933 24.9334 22.2933C24.9334 24.28 23.3201 25.8934 21.3334 25.8934C19.3467 25.8934 17.7334 24.28 17.7334 22.2933C17.7334 21.8933 18.0534 21.5734 18.4534 21.5734Z" stroke="#C53ECE" stroke-width="1.5" stroke-miterlimit="10" stroke-linecap="round" stroke-linejoin="round"/>
</svg>
