<svg width="32" height="32" viewBox="0 0 32 32" fill="none" xmlns="http://www.w3.org/2000/svg">
<path d="M16 22.6667V25.84C16 28.3333 15 29.3333 12.4933 29.3333H6.15996C3.66663 29.3333 2.66663 28.3333 2.66663 25.84V19.5067C2.66663 17 3.66663 16 6.15996 16H9.33329V19.16C9.33329 21.6667 10.3333 22.6667 12.8266 22.6667H16Z" stroke="#2EC430" stroke-width="1.5" stroke-linecap="round" stroke-linejoin="round"/>
<path d="M22.6667 16V19.16C22.6667 21.6666 21.6667 22.6666 19.16 22.6666H12.8267C10.3334 22.6666 9.33337 21.6666 9.33337 19.16V12.8266C9.33337 10.3333 10.3334 9.33331 12.8267 9.33331H16V12.4933C16 15 17 16 19.4934 16H22.6667Z" stroke="#2EC430" stroke-width="1.5" stroke-linecap="round" stroke-linejoin="round"/>
<path d="M29.3333 6.16002V12.4934C29.3333 15 28.3333 16 25.8267 16H19.4933C17 16 16 15 16 12.4934V6.16002C16 3.66669 17 2.66669 19.4933 2.66669H25.8267C28.3333 2.66669 29.3333 3.66669 29.3333 6.16002Z" stroke="#2EC430" stroke-width="1.5" stroke-linecap="round" stroke-linejoin="round"/>
</svg>
